<svg xmlns="http://www.w3.org/2000/svg" xml:space="preserve" viewBox="0 0 1024 1024"><path fill="#153552" d="m293 408 12-15h1-1l1-1 4-3 4-2c20-12 41-13 62-5l9 4 2 1v1l2 1 1 1 2 2 1 1 1 1 1 1 1 1 2 2 1 1 2 2h-1l1 1 2 3 3 5 1 2 2 5 1 1v2l3 13v1l1 3v1l1 1h27l3-1 1-1 2-2 8-24 1-5 2-3 2-2 1-2 2-2 1-1 1-3 1 1 3-3 3-4 1 1 2-3 1 1 25-9h21l10 3c9 1 15 6 22 12l1 1 1 1 1 1 1 1 1 2 2 2 2 3 2 3 5 10 1 3 4 18h1l1 1 28 1 3-1 3-7 6-21 2-4 13-15 2-1 2-2 30-11 16-1h2l6 1 8 3 12 6 4 3 2 2 2 1 1 1 2 2v1l2 2 2 2 1 1 1 2 2 3 1 4 8 24 2 3 11 1c22 0 40 8 55 23l1 1 2 1-1 1 1 1 1 1 1 1 2 1-1 1 2 2 2 3 2 6 8 26 3 19 2 16h-1l1 1v1a2781 2781 0 0 0 5 54l3 21a121 121 0 0 1 2 22l4 25v1l1 8 1 8a68 68 0 0 0 1 8l1 7 1 8a225 225 0 0 0 1 8l1 13 4 25v1a173 173 0 0 0 2 16l3 22 2 17 2 24 3 15 1 15 6 48v1h-1l1 1v5l-1 1v1l-7 19-2 2-3 5-1 1-1 1-1 1-1 1-1 1-3 3v-1l-2 3-1-1-4 3-3 1c-11 6-22 6-34 7H198c-12-1-23-3-33-9h-2l-2-1c-10-7-18-16-22-28-1-9-4-16-2-25a1733 1733 0 0 1 26-121l3-20-1-2 2-9 3-12 9-54v-13l1-6 2-2 4-37 3-18 2-24 5-44 6-39 6-21 1-2 3-5 2-3 3-4 2-2 1-1 1-1 1-1 2-2 2-2 1-1 2-2v1l2-2 3-2 21-9 4-1 22-1 4-5 8-23v-3m207 72-1-1-2-2v-1l-2-2v-1l-2-3v-1a3599 3599 0 0 1-3-12c0-10 2-19 7-28l1-3 3-3h1c7-3 13-2 20 0v1l2 1 1 1 2 1 2 5 2 6h19c1 0 3-2 2-3l-7-19c-5-7-11-11-19-14-10-4-21-3-32 0l-5 3s0 1 0 0l-2 2h-1l-1 1-1 1-4 4-1 3h-1l-1 1v2h-1l-1 1-2 5-1 1-2 2c-4 13-6 26-2 38 1 6 4 10 6 15l2 1v2l1 1v1l2 2 2 1 4 5 2 1v1l2 1v1l3 1 2 1c5 5 10 5 13 2l1-1 1-1h1l3-7-3-4v-2l-3-1-3-2v-1l-2-1-1-1-1-1m-163-55 1-1 3-2h1l17 1 3 1 2 4 1 1v1l3 8 4 1 19-1c1-5-1-13-4-16l-2-3v-1l-1-1-1-2s-1 0 0 0l-3-2-3-4-1-1v-1l-2-1-3-1v-1h-1v-1h-3v-1c-8-5-16-5-24-3-4 0-8 3-12 4l-2 1-2 1h-1v2l-1-1-1 1-2 3-5 4-3 4-1 2h-1c-5 7-8 16-7 26l1 18c3 14 10 26 23 35l11 3c4 1 7-2 8-6 1-3 1-7-4-10-10-6-15-14-16-26l3-27 2-4h1l1-2 1-1 1-1m317 73v1h2l1 1 1 1c6 4 10 4 13 0l1-2 3-2c1-3 3-6-1-8l-1-2-3-1-1-1-1-1-3-1v-1l-2-1-1-3-1-1-1-1v-1l-4-4v-7c-3-9-3-18 0-27l6-11 1-1 2-2h1l18-1 3 2 2 1 1 3 4 9v1l2 1 22-1-9-21-8-9c-12-9-26-10-40-7l-4 2-2 1-2 1-1 2-9 7-1 1-1 3h-1l-1 1-1 2-1 2-1 2-1 2-1 2-1 4h-1c-1 7-3 13-3 20l3 15v1a388 388 0 0 0 4 9v1l1 1v1l2 3 2 1v2l3 2 4 5 5 3v1h1m80 440-1 1v1h-1l-1 3 4 1h68l5-1h13l7-3 2 1 7-4 1-1h1l2-1 1-1 1-2 3-2 2-2 2-4 1-2h1c3-6 5-13 4-20l-4-32-6-41-3-18-4-38-5-34-3-20-2-8v-16l-5-35-4-40-5-43-3-13v-17l-2-2-2 2v8l-1 1-1 16-3 33-1 1-3 25-6 42-3 30-1 1-2 12-12 71-6 30-1 1v4l-1 1v4h-1l-5 27h-1v8l-7 29c-4 16-7 33-19 47m-569-9 2 1 1 3 3 1v1l3 1v1l2 2 5 2 18 3h461l21-1 22-7 3-3h1l2-2h1v-2l1 1 1-1 1-1 3-3 1-1s-1-1 0 0l3-5 1-2h1l8-26c2-12 5-23 9-34l10-44 2-20h1l1-1 8-44 2-15 2-9 6-35 8-66 2-14 3-28-1-5v-1l-1-1H220l-5 1v1h-2v7l-1 1-2 20v1l-6 42-5 35-1 13-1 1v6l-1 1v5l-1 7-1 1-2 18-1 1v5l-1 1v5l-1 1-3 16-5 32h-1v5h-1l-6 33-3 11-2 11-8 31-4 22c0 5 0 10 4 13l1 2v1l1 1 1 2 1 1 1 1m618-448v-1l-1-1-3-2v-1l-2-1-1-2-4-3-3-1-2-3-7-2v-1c-6-1-12-4-19-4h-64l-4 2 2 4v2l9 5 9 11c5 11 3 21-5 31-7 9-16 11-27 10-31-5-52-36-52-64l-4-1h-79l-5 2-2-1c-4-1-7-3-10 2 3 3 5 7 9 8 11 6 15 15 14 27-1 16-13 27-28 27-16 0-29-8-40-19a76 76 0 0 1-18-37 64 64 0 0 1-1-5v-3l-2-1h-92l-4 3 1 3 7 6c13 5 17 17 14 30-3 12-15 24-29 23-17-1-31-9-42-23-9-12-14-25-15-40-25-2-48 12-57 35-4 11-5 22-6 35l-2 21 4 1h564l2-13 3-30c1-9-1-17-5-25l-2-2v-1l-1-1z"/><path fill="#153551" d="m297 304 2-2 3-3 8-18 1-3 1-2a42 42 0 0 1 6-5l1-1 1-2 1 1 1-1 8-3c6-2 13-3 19 3h1l9 1v8l-5 25v10c1 5 4 4 6 4s3-2 5-3l1-1 1-1v-1h1l2-3 1-1 2-3h1l2-3 1-1 1-1 3-4 2-26c2-15 6-31 12-45l2-7c4-7 8-14 17-17 11-3 19 0 20 11v18l-9 29-5 12-4 7-3 5-6 9-1 1v1l-5 6c-3 4-3 9 0 13 3 3 7 7 12 4l19-16v-7c2-8 6-16 13-22l3-2c9-4 17-6 26-4l4 2 1 1 1 1 1 1 2 15-2 9-8 8-2 1-18 5-2 2 2 2 1 1c4 3 9 7 14 5 9-3 18-6 25-13 3-4 8-7 8-14l5-17v-4h1l1-3h1l3-1 9-1v9l-5 24c4-1 10-10 11-16l3-4 1-1 1-1v-1h1v-1l1-1 1-1 1-1h1l2-2 1-2 1 1c6-3 13-4 19-2l2 16-5 24-1 5c0 4 3 6 7 4l2-1 22-22 2-4a381 381 0 0 1 12-16l15-7 8-2v-1l2-2 7-31 7-20 5-7 1-1 1-1 2-2v1l1-1h14v1l2 1 1 1c4 10 4 21 1 31l-5 21v1l-2 2-3 6-5 13-1 2h-1l1 1-10 16c-3 5-3 14 1 18 3 3 7 4 11 2 6-5 12-10 15-18 2-9 6-16 13-22l1-1h1l2-2 1-2 1 1c8-3 15-7 24-5l1 1 2 2 1 1h9v12l-4 21c0 3-5 6 0 9 2 5 5 7 9 3l15-15c2-3 1-8 2-12l7-20 1-1 13-1v9l-2 5-4 15 1 1 1-1a263 263 0 0 1 11-16l2-2 1-1 1-1 2-2 1-1c7-4 14-7 22-5l1 1v15l-1 5c0 3 0 5 2 7h6l9-5 6-1 2 6-2 7c-8 8-18 12-29 10-3 0-5-2-8-4v-1l-1-16-2-4c-5 0-7 4-10 7-6 9-9 19-11 29-1 4-2 7-8 8-5 1-9 0-11-5l-2-8-1 1-2 2-1 1-1 1-3 3-1 1-3 2c-7 3-13 2-19 1l-1-1-7-9c-5 6-9 13-19 13-9 0-15-4-18-12-7 6-13 11-22 12-10 1-16-5-20-14l-9 9c-12 10-31 6-34-11l-2-2-13 13-3 2v-1l-2 1c-8 2-15 1-22-1l-1-1-1-1-2-15 5-21-1-4-4 1-4 4-2 3-2 3-11 27 1 1c-1 4-6 7-10 6-5 0-8-2-8-7l-2-9-2 3h-1 1-1l-3 3-1 2-1-1-2 3-1-1-1 1h-3c-12 6-25 7-39 1h-2l-2-2h-1v-1l-1-1-1-1-1-1-2-2h1l-2-2h-1l-2 2-2 2-1 2h-1l-2 1-1 1-1 2-1-1-4 3-2 1c-9 2-18 2-26-2l-2-2-1-1-1-1-5-9-7 7h-1 1l-1 1-1 1-1 1-1 1h-1l-2 2-3 3-1-1h-16l-3-3-4-7v-1l-1 1-14 11c-8 5-18 1-22-8l-3-3-20 11h-19l-13-4-1-1-4-4-5-9 1-4c-2-9 0-17 4-25l1-4 1-2h1v-1l12-10c8-2 16-1 24 0l5 7v12l-3 5-1 1-8 3v-1l-1-11c0-2-2-3-3-5-4-3-6-2-8 2v-1l-2 2v1l-4 10-3 6c0 5-1 12 5 16l1 1c4 6 10 4 15 4 4-1 8-4 12-7v1l1-1 2-2v1l1-1 1-2 1 1 3-3m346-30h1l2-6a455 455 0 0 0 8-21l6-27-1-7v-1l-2-1c-6 0-6 5-8 9l-4 12-1 10-5 32 2 3 1-1 1-2m-309 37 1-2 1-2 5-17 2-14-7 1c-10 4-15 13-17 23v-2h-2l2 12v1l2 2v2l2 1h2l7-3 1-1 1-1m365 2 1-1 4-5 4-18 2-13-6 1c-6 2-10 6-14 11l-1 1-4 8c0 4-3 9 2 14l3 5c3 3 5 2 7-1h1v-2h1m-293-42 1-2h1l2-6 1-2 5-12 1-3 1-3 1-8 3-16-3-7-6 5-9 23-5 17-3 22 3 4 3-5 3-5 1-2m206 10-1 2-8 11-1 3-2 5 3 9c2 6 7 7 11 3l6-4 1-3 1-2h1l2-8-1-14-1-5v-2l-4 1h-1l-3 2h-1l-2 2m-156-2-1 2h-1l-2 6-1 7v4l12-4c3 0 4-2 5-5l2-6c1-2 2-5-3-6l1-1c-3-3-6-3-8 0h-1l-3 3z"/><path fill="#153552" d="M123 116c5-22 19-38 37-52l2-1 2-1 8-5 1 1 13-3c14-1 28-2 41 1 9 2 9 2 9 11l-2 4-1 1-2 1-12-1c-6-2-11-3-17-3-5-1-10 1-15 2l-4 2c-18 7-30 20-37 39-6 13-7 27-2 40l3 4c4 3 7 6 11 7 3 1 7 0 10-1l4-2 2-1 1-2h1l4-4c4-6 8-11 10-17l14-56 2-2h10c6 0 6 3 6 7v4l-7 22-3 16-2 15-1 8 3 9 1 2 2 2c5 3 12 1 15-4l3-2 2-2 1-1 1-1 1-1 1-1h1l2-16 4-17c4-4 9-6 14-6h1l1 7-2 10-2 15 13-20c5-7 12-12 22-11l5 2 2 1c2 7 0 13-1 19l-3 14-1 10c1 6 4 7 8 4l10-8 1-1 1-1 2-3h1l1-2 2-2 2-11-1-8v-1l-2-1c-9-1-9-1-7-9v-1l1-1 6-1 3-2 4-14 6-14 1-2 1-2 3-5 1-1v-1c4-7 11-10 19-10l3 1v1h1l1 1c4 7 4 14 3 21l-3 13-8 12h9c8-1 9 5 6 11l-2 3h-27l-1 2-2 2 1 25 3 3-1 1 2 3 1 1c6 5 12 5 19-1l5-4 1-1 1-1 3-4 1-1a404 404 0 0 0 8-25h1l1-2 1-1 3-3 1-1 1-2 1 1 2-1c4-1 7-3 11-3l15 1 2 1h1v1l2 1 1 1 1 1 2 2 2 2 3 15c4 2 12 0 15-4l9-21h4c7-1 8 0 6 7l-3 14v10l6-10c5-6 9-12 15-17 5-5 12-5 19-2l2 6-4 25v5l-1 7c0 6 4 8 8 5 5-3 8-8 12-12 3-2 5-4 8-4 2 0 4 7 2 11l-5 6-7 8c-7 3-13 8-21 7l-12-4c-3-7-3-14-1-21l4-15c0-4-1-5-5-4l-1 1-1 1-1 2h-1v1l-1 1-1 1-2 4-1 2-1 2-1 2-9 24-1 1c-5 2-9 2-13 0l-3-7v-20l-7 2c-6 0-10 3-11 10l-3 4s-1 0 0 0v1l-1 1-2 3h-1v1h-1l-1 1-2 2-3 2h-3c-8 3-17 3-25-2l-1 1-1-1-1-1-1-1-2-2-1-2-1-1-2-4-2 2-2 3-1 1-1 1-1 1-1 1-2 2v-1l-4 3-17 2-10-2-2-1-11-14-11 11-13 5c-12 3-22-1-21-15l4-23c1-2 2-4-1-5h-3l-2 1-1 2-4 6-2 3-1 2-1 2-1 2-8 23-1 2-5 2c-4 1-7-1-9-6v-6c-1-2-2-3-3 0l-1 1-1 1-1 1-2 1-1 1-5 4v-1l-13 3c-7 1-13-1-18-5l-2-2-6-12-12 12-2 1-1 1-3 2-19 3h-7l-9-5-4-3-3-3-2-1 1-1-6-8 1-1v-2c-3-10-2-21-1-31v-8m222-9 1-1 3-4 2-3 1-2 2-5c2-5 4-9 0-13h-3l-1 1h-1l-1 1v2l-6 23c0 1-1 4 2 2l1-1m62 20c-2-4-4-2-6-1-8 7-11 27-4 36 4 5 10 5 14 0 4-4 5-12 3-13-8-6-7-13-7-22z"/><path fill="#153551" d="M678 164c3-1 6-1 8-3 5-3 8-8 12-13l1-7v-8l3-20 8-30v-3h1l3-9h1l2-4 2-4 2-2 3-5 1-1 2-2 1-1 7-4h13v1h1v1l2 2c3 12 2 22-1 33l-3 9-7 13-1 2-1 2 3 2 11 5v1l3 2-1 1 1 2a625 625 0 0 0 5 16l18-4 1 1v8l-1 1a280 280 0 0 1-21 7l-3 7-1 2-1 2-1 2-1 1-8 8-3 2-11 2c-7 1-12-2-17-4l-1-1-1-1-1-1-6-8-7 8c-5 5-11 7-17 8-5 1-11-1-13-7l-4-6-1 2h-1l-1 2-1 1-4 4-15 3-7-1-1-1-1-1-1-1-1-1-2-7-1-18v-6l6-12 1-1 2-3 2-2 1-1 1-1 1-1 2-2c9-5 17-8 27-7l1 1 2 3 4 1c5-1 7 1 7 6l-1 9-2 9v1l-3 10 2 10h-1l2 1m-31-30v1h-1l-1 2-1 2-1 2-3 16 4 7v1l1 1s0-1 0 0c3 1 5 2 7-1l1-1 1-1 1-1 4-8 6-26-1-3-7 1-1 1h-1l-1 1-2 1-1 1-1 1-1 2h-1l-1 1m72 1-1 2h-1c-3 6-1 22 4 26l3 1v1c4 3 8 3 12-1l1-4 3-6-2-6c-4-4-6-8-6-13v-11l-2-1-10 11-1 1m18-48v-2h1l3-8 1-5c0-4 2-8-3-10-3-3-5 0-5 2-4 8-7 15-9 24-3 9-4 19-6 29l1 1 8-12 4-7 3-7h1l1-5z"/><path fill="#153552" d="M585 171v1l-1 3c-6 5-12 4-18 2h1v-2l1-19 3-17v-13l2-9 2-1 7-42-1-2-19 1-4-1c-5 2-11 1-13 7l-1 1c-5 4-5 10-2 17 2 4 3 8 1 12l-13-3-1-1c-5-11-6-22 1-32v-2h1v-1h1v-1h1v-1h1l4-3 4-3 13-4 23-4h43l35 4-1 1-2 10v1l-2 3-1-1-45-1c-1-1-1 1-2 1v1l-2 5v1l-1 5-1 4v1l-2 9-1 5v1l-2 5-6 35-3 27zM793 159c8 10 10 9 22 3 3 0 6-2 5-5h1l2-4 6-15-2-2a48484 48484 0 0 1-5 4l-9 3c-10 1-17-1-25-5l-1-1-1-1-1-1-2-3-2-10a4117 4117 0 0 1 1-17l5-8 15-10h19l9 2 3 2 3 2 1 1 1 1 1 1 1 1 2 3 3 10 1 28v1l-5 16-4 7-2 3-7 7-3 2-4 2h-3c-10 4-20 5-30-1h-3l-3-3-1-1c-4-6-4-12-2-18l1-1h8l2 2 3 5m9-55-1 2h-1c-4 6-4 13 0 17v1l2 1v1l1 1 3 2s0-1 0 0h10l2-1 2-1 2-3 1 1 2-4c2-6 2-13-3-18-6-4-12-4-18 0l-2 1zM889 173c-2 6-7 8-15 7l-3-2v-1l3-27a578 578 0 0 1 8-45l-1-3h-4l-14 4s0 1 0 0l-4-3v-6l2-3 31-10c6-1 9 2 8 8l-3 12-5 37v7l-3 9v16z"/><path fill="#FFF4E1" d="m764 724-1 10-3 16-8 43h-1v1l-14 63-8 32-8 28-1 2-4 4v2h-1l-2 3h-1v1h-1l-1 1-1 1-3 2-14 6h-3l-20 1-12 2-4-1c-3-1-5-2-7 1h-3l-11-2-28 1-5 1-2-1h-8l-17 1h-4l-14-2-1 2h-2l-8-2-6 2h-17l-35-1-4 1h-55l-16-1-27-1-8 2h-2l-1-2-1 2h-2a169 169 0 0 0-19 0h-8l-40-2-23 1-3 1h-28l-2-1a231 231 0 0 0-19 0c-3-1-6-2-9 1h-2l-19-2-16-1-3-1-2-1-1-1h-1l-2-2h-1l-3-2-2-2-1-1-1-1v-1l-1-2c-1-6-4-12-4-18l5-26 18-78 14-78v-17l1-6v-1l1-6v-1l2-13 6-32h1l4-33 5-39h202l6-1h47l2 1 11 1 4-2h17c5 2 9 4 13 0h12l4 1h18l1-1h4c3 0 6 4 8 0h11l7 1h198l-2 24-1 15-1 8-5 40-3 26-2 12-3 22m-87 166 1-2 5-3 1-2s-1-1 0 0l1-2h1l1-3h1v-3h1l3-11 7-31 1-1 1-8 1-1c1-3 1-7 3-10l3-8 16-85 8-48 5-35c1-10-1-17-8-21l-2-2-16-2-44 1H279l-9 3h-4a51 51 0 0 1-2 3h-1l-2 1c-1 2-4 3-4 5l-5 20-9 58-9 51-5 26-1 5-5 23-5 22-10 41c0 6 3 11 4 18l2 2 5 3v2l11 4 11 2 309-1h81l27-1c4-1 9-1 12-6v1l1-1h1l1-1 3-2s0-1 0 0l1-1z"/><path fill="#F39E6A" d="M445 464v6l1-1c3 13 8 26 18 36 11 11 24 19 40 19 15 0 27-11 28-27 1-12-3-21-14-27-4-1-6-5-8-9h99c0 27 21 58 52 63 11 1 20-1 27-10 8-10 10-20 5-31l-9-11-9-6v-1c2-1 3-3 5-3h58l5-1 5 1 6 1c-1 0 0-1 0 0h2l4 1h1l6 3 3 2 2 1 4 3 2 2 1 1 1 1 2 2v1l1 1 1 2c4 8 6 16 5 25l-4 38c-1 4-3 4-6 4H220v-20c1-12 2-23 6-34 9-23 32-37 57-35 1 15 6 28 15 40 11 14 25 22 42 23 14 1 26-11 29-23 3-13-1-25-14-30l-6-7 4-2h87l5 2z"/><path fill="#F5D1A6" d="M767 827v-1l1-4v-1l1-4v-1l3-6 5-20 14-76v-12l1-2 1-1 8-56v-14l3-18 1-2 4-43 2-2 2 28 4 34 3 11a1217 1217 0 0 1 4 42l2 24 3 15 6 54 6 44 3 17 1 7 1 7 2 7 4 26c1 14 5 28-1 42l-1 2-2 4h-1l-1 2-3 3-1 1-1 1h-1l-1 1h-1l-1 1-5 2h-2l-24 2h-68l-6-1h1v-1h1v-1c12-14 15-31 19-47l7-30 1-7v-1l6-26z"/><path fill="#FDD473" d="m317 414 5-5 2-2h1l1-1 1-1 2-1 2-1h1a50 50 0 0 1 35 0l3 1 1 1a129 129 0 0 0 3 1v1l2 1 1 1 4 4a226 226 0 0 1 2 3v1l-16 15-2-3-1-2-3-3-2-1v-1c-6-3-12-4-18 0a22 22 0 0 0-4 3l-1 1h-1v1h-1l-1 2-2 4h-1c-4 9-5 18-3 28 2 11 7 19 17 26l-15 11c-13-8-20-20-23-34l-1-19 8-25 1-2 3-4zM633 433v-1l1-3 1-2 1-2 1-2 1-2 1-2h1v-1l1-1 1-2 1-1 9-8 1-1 2-1 2-1 4-1c14-4 28-3 40 6l8 10-16 13a285 285 0 0 1-6-7l-3-2c-7-3-13-4-19 1l-2 2h-1v1h-1a40 40 0 0 0-5 43l1 2 3 5 1 1v1l1 1 2 2 1 1 1 1 2 1v1h1l1 1v1l-11 8-2 4h-2l-1-1-1-1h-1l-4-3-5-5a190 190 0 0 1-4-5v-1l-2-3-1-2-1-3-3-7v-1c-2-11-1-23 1-34zM494 403c11-4 22-5 32-1 8 3 14 7 19 15l-16 14-3-4-1-1-1-1-2-2c-7-5-14-5-21 0l-3 3h-1l-2 3a44 44 0 0 0-6 30l4 11 2 4 2 3 2 2v1h1v1h1v1h1v1l2 1 1 2-13 12-3-1-1-2h-1l-2-1-5-5-1-1-2-3-1-1-1-2-1-1c-8-19-8-37-2-55l1-2 2-4 2-1v-2h1v-1l1-1 1-2h1l3-4h1v-1h1l1-1 2-1 1-1 4-2z"/><path fill="#153652" d="M699 832v1l-9 33 1 2-3 6v1l-1 3-2 3-2 1v1l-1 2-4 4-1 1h-1l-1 1-2 2-2 1h-1l-1 1-9 3H467l-35 1H239l-5 1h-4l-8-4-1-1-2-1-1-1-1-1-1-1-2-3c-3-8-4-15-2-22 3-7 4-14 5-21l7-28v-5l1-1 3-9 6-33 7-34v-11l1-3v1h1l2-13 8-50 4-31 1-2v-1l1-1 1-1 1-1 1-1 2-2 10-3h360l21-1c24 1 48-2 72 2l2 1 1 1 1 1 1 1 1 2 1 2-3 31-2 20v1l-1 6v1l-1 6a373 373 0 0 0-3 19l-5 21-3 22v1l-1 4v1l-1 4-8 36-5 25v1l-2 8m-33 38 1-2 1-2s-1 0 0 0l1-4h1l7-24 4-17v-9l-2-1h-80l-3 2h-2l-1 3-14 56 1 5 4 1h63c4 0 8-3 13-4l2-1 2-2 2-1M396 637l-2 1h-1l-5 32h-1l-2 20 1 13h90l2-3 2-11v-3l7-45-2-3-1-1h-5l-75-1-4 1h-4m193 88v-1l-5-1h-83l-5 2h-1l-1 3a1350 1350 0 0 0-9 53h-1v5h-1l1 3v1l6 1h87l2-4 7-34a210 210 0 0 0 3-28m97 64h1l1-8 4-17h1l7-36-2-3v-1l-2-1h-81l-3 2h-1l-1 1-11 61 3 4h2a29227 29227 0 0 0 82-1v-1m-70-88 1 2h83l3-3v-2l2-5 1-1 8-52-2-2-1-1h-81l-4 1h-1l-2 9-4 29-1 1-3 17 1 7m-17-30 3-19v-14l-2-1h-89l-1 1h-2l-1 3-7 45v16l3 1h86l4-1 6-31M364 812l-1 1-2 2-14 58 1 4 2 1h85l5-1 1-3 1-1 1-2 3-7 10-48c1-2 1-4-3-4h-89m4-175h-83l-6 1h-2l-2 12-8 48 1 5 5 1h88l3-13 8-51-2-2-2-1M233 875l2 1v1l12 2h73l4-2h1l2-11 1-1v-4h1l2-3 9-39v-5l-2-2h-87l-5 1-3 14-11 43 1 4v1m122-151h-87l-4 2-1 8-10 53v4l3 1h86l3-3 1-2 1-4 1-4v-1l2-4 8-47-3-3m13 66v1l6 1 82-1h3l2-2 7-31 1-1 5-29-2-3-3-1h-85l-5 2-1 3-4 25-4 23-1 1-1 12m110 23-5 19a819 819 0 0 0-8 46h87l4-2h2l1-3 13-55c1-7 1-7-5-7h-83l-6 2z"/><path fill="#FDF3E0" d="M484 790v-5l1-4v-1l2-6 9-49h93l-1 3v1l-6 35-6 26h-92z"/><path fill="#FEF4E0" d="M370 777v-1l7-28 1-1 2-14c1-4 2-6 7-6h85l-5 31-7 31-92 1 2-13zM441 873v1l-6 2h-84a21801 21801 0 0 0 1-13l6-19-1-3 6-28h91l1 3a3043 3043 0 0 1-13 49l-1 8z"/><path fill="#62B8DE" d="m557 876-1 1h-92l3-16 4-9 2-4 5-24c1-4 1-10 7-10l1-1h3l6 1h76l-6 25-8 37zM253 786l10-53 3-6h90l-2 13-6 38v1l-2 4-1 4-5 2h-82c-2 0-3-2-5-3z"/><path fill="#FFF4E1" d="M278 638h1a26572 26572 0 0 1 91 0 823 823 0 0 1-8 47l-2 10c0 4-1 6-6 6h-80l-5-2 1-2 2-9v-9l6-41z"/><path fill="#FEF4E1" d="M698 724v1l-7 39-3 17-2 8h-83l-2-3 11-61h71l15-1z"/><path fill="#FFF4E1" d="m703 699-1 1h-84v-7a503 503 0 0 0 1-12l3-8 5-33h77c6 0 7 0 6 6l-5 36-2 17z"/><path fill="#FFF4E0" d="M539 640h61l-2 19-6 35c0 4-2 6-6 6h-79c-5 0-5-1-5-6l8-50c0-3 1-4 5-4h24zM444 640h40l-4 29-4 25c0 4-2 6-6 6h-84l3-17 5-36c1-5 1-7 7-7h43zM665 869l-1 1-2 1-1 1-2 1v1h-3l-10 1h-58c-5 0-6-1-5-6l2-9 10-39c2-7 2-7 9-7h74a340 340 0 0 1-12 53l-1 1v1z"/><path fill="#FFF4E1" d="M246 819v-1c2-3 5-3 9-3h75c7 0 7 0 8 7l-1 1-2 8-1 8h-1l-1 4-1 4-3 7-3 16c-1 5-4 6-7 6h-72c-4 0-9 1-13-5l1-2 2-6 10-36v-8z"/></svg>