<svg
  xmlns="http://www.w3.org/2000/svg"
  xml:space="preserve"
  viewBox="0 0 1024 1536"
>
  <path
    fill="#696E5B"
    d="m66 835 2-2 3-4 2-2 1-2 2-1a63 63 0 0 0 3-5l1-1 1-1 4-4 4-4 6-7 8-7 27-22 3-2 2-1c5-3 9-5 10 3l3 2 5 7 1 2 1 2h1l2 2 1 1 8 6a86 86 0 0 0 7 4l1 2h1l1 1 4 2 1 1 3 1 2 2 7 4 8 5 3 2 2 1 8 5 14 8a1177 1177 0 0 0 30 15l2 1 2 1 2 1 2 1 2 1 2 1 3 1 3 2h1l6 3h1l2 1c3 2 6 4 9 4l23 7 3 1 1 1h1l4 2c13 3 26 8 40 4l14-3 9-7c8-4 12-11 13-19l1-27-2-9 18-10 7-5c5-5 10-10 17-8l17 7 10 6 19 13 7 4 2 2c1 3 3 6 6 5 1 4 2 6 6 6l1 1c1 4 2 7 6 7l1 1 1 2 2 2c2 3 2 6 6 6l1 2 11 15a174 174 0 0 0 1 8v1l-25 53-2 5-5 1v11a700 700 0 0 0-7 24c0 4-2 5-5 4l-32-13v-4l2-7c4-2 4 8 10 3-4-3-5-10-12-8-1-15-1-15-5-17l2 25-4 2-2-12v-5l-3 1c-2 2-4 3-6 0l-4-2h-1l3 17-2 1-3-1-2-3-1-2c3-4 4-7 1-10s-8-2-11 2l-2 2-8 3-12-4c-6-3-10-1-14 2-9 5-17 11-23 19l-10 12-12 21-6 10-12 22-15 28-11 23-18 36 17 5 21 8 13 5 24 8 23 8 16 4 22 5 7 1 25 8 17 2 17 3 5 2 21 5c4 1 6 3 6 7l1 29v71l-1 26c0 7 2 13-2 19l-9 10-1 1-23 5-11 4-8 1-16 1-4 3-4-2-39 5-24 1-11 2h-2l-4-1c-5-2-10-2-15 0l-3-1h-27l-10-1h-66l-9-2h-20c-7-2-13-1-19-1-3 1-5-2-8-3l-10-1c-2-3-8-1-13-2l-3-1-28-3-24-5H94c-3 0-5 0-8-2l-3-1-4-2-2 1-17-8-10-3c-3-1-11-8-11-12l1-7v-49l2-24 2-17-2-46-2-22v-22l-6-51-2-4v-10l-4-39-4-37v-48l4-17 2-16 7-17 3-11 8-16 1-3 2-3 5-7 1-3 2-3 2-3 2-2 1-3 2-3m105-10 14 4 36 17a368 368 0 0 1 27 17l-1 2 18 9 17 8 25 12 1-3-26-11-7-4-23-14-7-4-3-3-10-6-26-14-21-8-15-4c-12 0-25-3-37 1l38 1m33 214-23-13c-2 6 11 34 19 39l-1-7c-4-5-3-10 2-15l10 6c2-3 2-5-1-7l-6-3m27 48 10-8-7-1 6-7-10 2c-3 1-6-1-6-5 0-3 4-5 8-4l5 1c-3-6-9-7-12-2-2 1-2 4-3 6-2 3-4 3-6 1l-5-9-3 3c1 8 8 13 14 18 2 3 5 4 9 5m4-102 4 5c5 3 14 0 15-6l-2-8c-1-5-5-7-11-7-4 0-7 3-7 8l1 8m171-68 4 7c1 3 3 3 5 0l-11-22-4-3c-1 1-3 2-3 4l-2 22 1 3c3 0 4-2 3-5-1-5 2-7 7-6m-186 118-3-5-8-7c-1-2 0-5 1-7h5l12 7v-4c-1-3-13-11-15-10-3 1-6 5-5 5 1 4-1 5-3 6-3 1-3 3-1 4l14 12 3-1m-9 75-9-8c-3-2-4-4-3-7l2-10-2-1-9 19 2 8 4-7 5 2 16 13h3l-1-2-8-7m1-9 9 6c2 2 3 1 4-1 2-4 0-8 4-11l-3-5-9-5-7-4c-2 8-5 14 2 20m53-154c-6-3-9-2-12 4l-3 4c-3 3-3 5 0 8l8 5 5 1-2-5c-7-6-7-6-2-13l1-1 11 7v-5l-6-5m12 30-6 12c8 1 10 8 13 14 1-2 3-6 2-8-1-3-4-5-6-7s-4-4-2-6c2-1 5 0 7 1l9 6 1-1-1-4-11-8c-2-2-4-1-6 1m41-30c-3-5-12-9-14-5-2 3-3 7-3 10 0 5 3 8 8 10h4c6-3 7-7 5-15m-74 91 3-5 4-3c-10 2-11 2-11 13 0 2 4 5 7 6s8 1 11-3c2-3 2-9-1-13v7l-7 5c-4 1-4-4-6-7m-24-42c-1 4-6 7-2 11l4-5 8 6c4 4 6 3 10-2l-15-8 1-4-1-1-5 3m200-79v-5c0-2 2-3 3-5 1 1 3 2 3 4l1 9 2 5c2-4 2-18-1-20l-5-1-7 4 2 16h2v-7m47-10v-2c0-3 0-6 3-6 2 0 3 4 4 6l1 8 2 2 2-3-4-17-12 4 2 16 3 2 1-1-2-9m16 47c7 4 10 3 11-6l1-3-5-9c-2-1-6 1-8 2-4 2-3 5-3 9l4 7m-216 40-4 4c-1 5 4 13 9 14 3 0 6-1 8-3l1-7h-2v2l-5 3-4-2 3-4c2-2 2-5-1-7l-3 9c-4-3-3-6-2-9m180-79 7 3c7-1 8-4 6-12-1-5-4-6-8-5-5 1-6 4-6 8l1 6m-7-10 1-1-3-8-6 8c6 5 1 16 11 18l2-4-5-5v-8m-148 60h-1l-5-1 2 5 11 9 5 3 2-4-2-1c-3-4-10-5-12-11m-55 84-4-4c-3 7 1 11 16 16 2-2 1-4-2-6l-10-6m20-26-5-3c-2-3-3-2-5 1l15 11c2 1 5 4 6-1l-11-8m36-63c4 8 15 13 19 7-7-1-13-4-16-10l-3-1v4m-25 62 3 3 1-1c-2-8-10-10-15-15 0 3 1 6 3 8l8 5m-22-5-2-7h-1l-4 3 7 4z"
  />
  <path
    fill="#5B5D49"
    d="M208 325h1l17-8 8-3 16-5h1l4-1 1-1h1l15-4h1l1-1h2l19-1 24-3 27 1 13 2 17 2 5 3 17 7 13 5 3 2 7 5 3 2 1 1c3 3 4 7 9 5h10l27 5c9 2 17 4 25 9l7 5 11 8 17 19 5 19 1 11c3 17-5 29-14 41l-7 9h-3v1l-3 2v1l-4 1-4-6c-2-10-5-20-12-28-7-9-13-19-24-25-9-6-18-12-29-15-15-5-29-7-44-8l-36 1-24 5c-4 0-6 0-6-5l-14 8-28 22-29 25c-12 11-23 22-38 29-9 4-19 6-29 4l-5 2-20 25c-8 11-15 24-22 36-2 3-2 6-3 10l-8 2-12 7c-4 1-5 4-5 7l-7 1v-1l-1-1-1-3-2-4v-1l-1-5-4-29c0-12-1-24 1-36 2-15 5-29 10-44l4-14 4-8 4-7v-1l1-1 2-3 17-23 6-7 1-2 2-2 12-12c5-2 9-4 10-9l5-4 2-2h1a52 52 0 0 0 7-5l8-4a76 76 0 0 0 7-5h1l4-2 1-1m141 47 3-1 14-5 17-4 1-1h-3l3-2c-8 1-16 4-23 7l-11 5-2 1h1m31-30-12 3 1 2 13-5 5-1v-1l-7 2m59 4-4 1c-14-1-27 3-41 7l-6 3 1 1c29-11 59-14 90-6-6-3-21-7-40-6m-46-6 23-5-1-1-22 5v1m-8 16s1 0 0 0z"
  />
  <path
    fill="#6A4517"
    d="M139 544c1-4 1-7 3-10 7-12 14-25 22-36l20-25 5-2c10 2 20 0 29-4 15-7 26-18 38-29l29-25 28-22 14-8c0 5 2 5 6 5l24-5 36-1c15 1 29 3 44 8 11 3 20 9 29 15 11 6 17 16 24 25 7 8 10 18 12 28l4 6 1 2-1 1-1 2-1 26-1 13-1 4-4 3-3 9-3-3-1-2v-6a82 82 0 0 0-6-34l-4-11c-2-2-5-4-6-7-4-9-10-17-18-24l-1 15c0 3-2 4-4 3l-18-13-6-7-5-6-7-7v7l1 5c-1 6 3 12-4 17l-4-4-10-7-5-5-2-1-1-2-1-2-2-2v-1l-3-3-1-2-1-2v-1l-3-4-2 8-2 17v1l-2 11c-2 2-4 7-7 3-7-8-14-15-15-26l-4-12-1 3-10 24c-2 5-3 9-10 11l-7-36-5 8-1 1-2 3-3 6-3 3-1 2-2 2-1 2-1 3-2 2-1 1-1 1-1 1-1 1-2 2-1 1-1 1-1 1-1 1-3 3h-3v-31c-9 9-15 18-19 28l-1 1-9 11-2 2-2 1h-1l-1 1h-2l-1-12c0-3-2-4-4-2a129 129 0 0 0-25 30c-5 8-12 15-14 25v1l-10 26-2 3-5 1-4 1h-23c4 7 10 5 15 5l18 1c-3 26-5 51 0 76l2 1 2 14 3 6h1l1-5 3 4 1-10 2 5 2 19 4 7 3-6c7 6 2 17 10 23l3-10h2l1 4 6 18 3 4 3-4 1-4 2-4c4 9 4 19 12 26l3-15 7 14 3 10 4 3 2-3 4-8c3 10 7 19 15 26l2-7 1-3 3 2 9 15 3 2 2-3 1-7 11 15c2 3 4 2 5 0l3-8c2 6 4 13 9 17l1-1v-16l2 3c4 2 6 1 6-3l-1-17-3-9c16 4 32 3 50-1-9 10-3 21-4 31h2l4-4 7 9 4-17h2l2 11c5-6 8-13 10-22l5 12 12-24 2 7c9-4 9-13 13-21l1 9c7-6 7-14 10-21l2 8h2l6-24h1l2 7c8-9 6-20 6-30h1l2 10c3-3 5-4 5-6l4-29 3 5 3 21 1 6v17l1 1-1 11-2 4-5-3-1 3c1 11-4 21-6 32l-2 3-4-2-2-3-1 1c-1 12-8 22-14 31l-4 3-1-4-2-3-1 3c-3 11-8 21-18 28-2 1-3 4 0 6-7-2-12 3-17 8l-7 5-18 10-2-2-18 11-2-4-2 2h-4c-10 5-15-2-22-6l1 8-10-6c-5-6-5-6-9 1l-1 1-16-14-1 10c-14-3-18-16-27-24l-2 14-21-18c-3-2-5-3-7 0 0 1-3 2-4 1l-12-12-9-13-4 6c-10-4-13-14-18-22l-6 3c-7-5-10-13-12-21l-2-3-1-6v-3l-1-1-4 11-6-12-2-12h-2l-2 7 1-1 4 4-3 5-8 3-1 2-8 5-4-3-2-14 1-4-1-1-9 4-2-4v-8l1-1 9-32-6-3 1-2 14-2c2-1 4-3 4-5l1-20 1-22-2 1-4-46-2-6c-5-7-11-15-21-17z"
  />
  <path
    fill="#DC6525"
    d="M634 194h15l5 1c-1 8-1 16 3 23l8 14h5l3-9-4-1-6-6h-1l-3-17 3-5 16-1h16l3 1h7l2 1 10-1 3 1 3-1 7 28c3 5 4 11 10 13l4-5c3-3 2-8-1-9l-10-2-1-4v-3l-2-14 2-4 1-1 12 2 18-2 2 3 11-2h17c1 9 2 17 6 25l6 13c6 3 8 1 9-5v-1l-2-4-2-1a357 357 0 0 0-8-11l-2-14 2-1c4-2 8-3 12-1h18l2 1 9-1h2c4 3 7 1 11 0h3c3 0 4 1 4 4l3 19c2 5 3 11 9 13 2 4 4 5 6 2 3-4 1-10-4-11l-7-12-2-10 3-6 4 1 28-1 2 2 9-2h1l1 1 5 1 23 1c6 4 11 9 12 16v9l-2 65h-4c-5 2-11-2-16 3a200 200 0 0 0-9-1h-42l-68-1-56 1-30-1-20 1-3-1-10 1h-3l-18-1-12 1h-3l-27-2-39 1-53-2-28 1h-3l-3-1 1-23 1-37 2-14c3-10 8-15 23-16l34-1h8l6 2c-2 11 1 20 7 29l7 9 5-4c3-3 2-8-2-9l-5-1-2-1-1-4c-3-6-4-12-3-19l2-2 6-1a1384 1384 0 0 1 38 2l1-1z"
  />
  <path
    fill="#DD6626"
    d="M891 637c-8 1-15-2-22-5-12-5-24-11-34-20a95 95 0 0 1-26-40l-4-5-1-3v-2c-1-13-2-25-1-37 1-14 4-26 10-38l6-12v-1l12-12 20-16 2-3 2-1h3c11-6 22-9 33-10h38l2 1h2l14 5h3c1 3 3 4 6 6 6 3 12 8 18 13 12 8 19 20 25 33a92 92 0 0 1 6 66c-2 12-7 23-13 33-7 12-16 23-28 31-8 5-18 9-28 13h-2l-9 1-25 3h-9m-62-99c0 13 4 25 10 36 5 9 13 16 20 23 13 12 28 16 45 15 9 0 18-4 26-9 10-5 18-12 25-20 6-9 10-19 14-29 3-7 5-14 5-20-1-11-2-21-7-31a78 78 0 0 0-56-48c-8-2-17-1-25 1-9 3-17 7-25 14a91 91 0 0 0-25 33c-4 10-8 20-7 32v3z"
  />
  <path
    fill="#DC9533"
    d="m729 222-7-28c0-8 0-14 4-20l1-4 1-2c4-3 7-7 12-9 9-3 17 0 24 7 6 6 7 13 10 21l1 6c-3 2-7 2-11 2l-4-19c-6-11-18-12-25-1-5 6-8 14-7 23l3 14v3l1 4-3 3z"
  />
  <path
    fill="#422908"
    d="M851 719v2c0 6-1 10 4 15s5 13 4 19c-3 11-7 21-15 29-2 2-4 5-4 8-6 20-16 37-31 51-7 7-9 15-10 24l-2 41v12l-2 53-3 36-2 7 2-28v-15l-2-3v-1c1-3 3-5 3-8l3-79 2-22-1-1c-3-2-3-3 0-6 14-14 27-28 34-47l8-17-6 1-1-2 7-3c9-9 15-19 17-31 1-6 0-12-3-17l-4-1-1-3v-2l1-6v-5l2-1z"
  />
  <path
    fill="#8C7C32"
    d="m790 970 2 3v15l-2 28v1l-2 4-3 12-2 3-1-3-2 3-1-5-1-5 1-1h-1l-2-11-1-3 1-9c7-4 6-11 6-17l2-1 4-1c0-4 5-8 2-13z"
  />
  <path
    fill="#51360D"
    d="m778 1079-9 27c-4 12-9 24-17 34-6 10-11 20-18 29-11 14-25 25-45 24-9-1-18-5-28-7v-2l18 6c8 2 17 2 26-1 12-5 22-14 29-25l18-28c6-10 11-19 14-30 4-8 5-18 7-27h1v3l2-4 2 1z"
  />
  <path
    fill="#482B08"
    d="m851 719-2 1c-1-7-4-13-11-17l-8 18c-5 10-11 19-23 22l2 6-13-28 7 15c3 5 4 5 8 2 11-8 18-18 23-30 4-11 5-21 1-32-3-9-13-15-20-13v-6c1 3 4 3 6 4 8 2 13 7 16 15 3 6 4 11 2 18-1 3 0 5 4 8 5 3 8 9 8 17z"
  />
  <path
    fill="#45330A"
    d="M517 1335c4-6 2-12 2-19l1-26v-71l-1-29c0-4-2-6-5-7l49 4c10 1 18-3 27-5h1c-9 6-20 7-30 7l-33-2-6-1v61l-1 39v43c0 2-2 4-4 6z"
  />
  <path
    fill="#4D2F0B"
    d="M737 592v8c-2 5-1 10 2 14l20 35c13-12 27-19 45-9v2l-4-1c-15-7-27-3-37 9l-2 4-9-10-16-31-2 1-3 20-3-1 3-16 5-29 1 4z"
  />
  <path
    fill="#49340E"
    d="m531 379-17-19-11-8-7-5c-8-5-16-7-25-9a608 608 0 0 0-37-5c-5 2-6-2-9-5 5 5 11 2 17 3 11 1 22 1 33 5l26 10h2l2 1 3 3v1l2 2h1l4 2v1l3 2 1 1 1 1 1 1 1 1 1 1 1 1 1 1 1 1 3 4v1l1 2 1 1v5z"
  />
  <path
    fill="#45330A"
    d="m30 909-2 16-4 17v48l4 37 4 39v8l-3-19-4-28-2-24-2-36c0-20 3-39 9-58zm2 168c1 0 2 1 2 3l6 51v22l2 22 2 46-2 17-2 24 2-45a690 690 0 0 0-4-82l-4-41-2-17z"
  />
  <path
    fill="#3C2306"
    d="M147 661v2c-12-5-20-15-27-26-6-10-11-20-12-32l-1-34v-10h7c-5 8-6 17-6 27 0 17 6 33 14 48 6 10 14 19 25 25z"
  />
  <path
    fill="#49340E"
    d="m168 724 1-2 8-3-2 20c-1 3 0 7-2 9-3 2-4 5-2 9v2l-3-4c0-5-4-5-6-4-5 2-9 5-12 8-5 6-5 10-1 15l-1 1-3-2c-1-8-5-6-10-3l-2 1 23-20c2-2 6-4 9-4 7 1 7-4 8-8l1-12c0-5-1-5-6-3z"
  />
  <path
    fill="#341E06"
    d="m954 286 1-65v-9h1v66l-1 37-1 18-1 10-2-3 1-26 1-22v-1l1-5z"
  />
  <path
    fill="#49340E"
    d="m113 423-4 14c-5 15-8 29-10 44-2 12-1 24-1 36l4 29 1 5-4-15a203 203 0 0 1 2-81c3-11 8-21 12-32z"
  />
  <path fill="#422908" d="m952 340 1 3 1-10-2 45v3l-1 51-1 6h-1l1-36 2-62z" />
  <path
    fill="#3C2306"
    d="M804 642v-2c7 3 10 9 11 17v6c0 23-9 43-21 48l2-3 2-4c13-13 16-30 15-48-1-6-3-11-9-14z"
  />
  <path
    fill="#51360D"
    d="m376 303-17-2-13-2-27-1-24 3-19 1 21-4 35-2c15 0 29 2 44 7z"
  />
  <path
    fill="#482B08"
    d="M774 186c-3-7-4-14-10-20-7-7-15-10-24-7-5 2-8 6-12 9l-1 2c-6 8-8 16-8 25l-3-1c0-11 4-22 12-29 17-17 36-8 44 11l2 10z"
  />
  <path fill="#53300D" d="m804 565 1 2a2676 2676 0 0 1-59-1l1-2h31l26 1z" />
  <path
    fill="#573710"
    d="M661 1184v2a790 790 0 0 1-39-21c-3-3-5-2-8 1l-2 1v-1l10-10h2l-4 5 22 14c6 4 13 6 19 9z"
  />
  <path
    fill="#422908"
    d="m505 347-2-1a20 20 0 0 1 1-9l2-52 2 1v10l-1 18-2 33z"
  />
  <path
    fill="#482B08"
    d="M788 194h-2c1-14 5-25 17-33 8-6 23-6 29 2v1l-3-1-3-2h-1c-7-4-13-4-19 1h-1l-5 5h-1l-2 4h-1c-6 6-6 15-8 23zm126-1h-1c-1-8-2-15-7-21l-1-2-1-1v-1l-1-2-3-2-2-1-1-1c-8-5-16-5-23 0l-3 2h-1l-2 1-1-1c10-10 32-11 41 5 4 8 6 15 6 24zm-339 1h-2c1-20 11-36 31-38 5-1 10 0 15 4-12-4-22-3-32 5-8 8-11 18-12 29z"
  />
  <path fill="#3C2306" d="m778 1079-2-2 9-44 3-12 2-4-4 25-8 37z" />
  <path fill="#45330A" d="M40 1264v47l-1 7-2-20 1-4 2-30z" />
  <path fill="#49340E" d="M411 318a211 211 0 0 1-35-15l25 9 10 6z" />
  <path
    fill="#482B08"
    d="m844 194-2-1c1-11-3-21-10-29h1c6 4 8 10 10 17l1 13z"
  />
  <path fill="#422908" d="M670 158c11-5 24 1 28 11h-1c-7-8-15-14-27-10v-1z" />
  <path fill="#3C2306" d="M892 637h8l25-3 9-1c-14 5-28 7-42 4z" />
  <path
    fill="#482B08"
    d="M857 194h-2c1-10 2-20 11-28v1l-4 8-5 19zm-223-1c0 1-1 2-2 1-1-9-1-19-7-27l1-1 7 16 1 11z"
  />
  <path fill="#6E4817" d="m747 564-1 2-5 1-4 11 3-18 2 1h1l4 3z" />
  <path fill="#45330A" d="m40 881-3 11-7 17 10-28z" />
  <path
    fill="#422908"
    d="M706 194h-2l-7-24 1-1 2 3 6 22zm-57 0h-2l6-21 1 1-5 20z"
  />
  <path fill="#281602" d="m737 578 4-11-4 25-1-4 1-10z" />
  <path fill="#6E4817" d="M956 212h-1c-1-7-6-12-12-16 8 2 12 7 13 16z" />
  <path fill="#422908" d="M655 170c3-6 8-10 15-12v1a239 239 0 0 1-15 11z" />
  <path fill="#49340E" d="M162 357z" />
  <path fill="#573C11" d="M226 317z" />
  <path fill="#45330A" d="M47 865z" />
  <path fill="#49340E" d="M172 348c-1 5-5 7-10 9l10-9z" />
  <path fill="#573C11" d="M250 309z" />
  <path fill="#6E4817" d="m592 1182-2-1 10-5v1l-8 5z" />
  <path fill="#422908" d="M143 701v6l2 4c-3 1-5 0-4-3l2-7z" />
  <path fill="#51360D" d="M272 303z" />
  <path fill="#45330A" d="M103 795zm-8 7-6 7 6-7zm-40 50-4 7 4-7z" />
  <path fill="#573C11" d="M195 333zm-9 5-6 4 6-4zm48-24zm-33 15-6 4 6-4z" />
  <path fill="#573710" d="m608 1171-5 4v-1l5-3zm4-4-4 4v-1l3-4 1 1z" />
  <path fill="#482B08" d="m619 160 4 3-1 1-3-4z" />
  <path fill="#422908" d="m653 173 2-3v1l-1 3-1-1z" />
  <path fill="#573710" d="M600 1177v-2l2-1 1 1-3 2z" />
  <path fill="#482B08" d="m624 164 2 2h-1l-2-2h1zm242 2 1-1h1l-1 2-1-1z" />
  <path fill="#3C2306" d="M934 633h2-2z" />
  <path fill="#482B08" d="m623 163 1 1h-2l1-1z" />
  <path fill="#45330A" d="M32 1075v1-1z" />
  <path
    fill="#F4CBA4"
    d="m603 1174-3 1-10 6c-9 3-17 7-27 6l-50-5a806 806 0 0 1-26-6l19 1 17 3 1-2-6-3v-4l-14-8-13 3 4-5 9-12 1-1c1-2 1-5 4-4 4 3 8 4 10 8 8 14 18 20 32 20l2 1 7 2c2 0 3-2 1-4l-8-6c-6-6-11-12-19-14l-7-4h6l22 1 24-2c5 0 8-3 12-5l1-3-3-2-11 2-3-2-12 2-9 2-8-2 17-5 11-1 12-7 9-8-1-2-33 7c-15 3-28 8-38 18l-14 2v-5c2-12 0-23-5-34-6-10-14-17-24-22-20-12-47-4-61 13l-8 12h-3c-3-8-5-15-3-23l1-2h-1c7 0 11-5 15-9l3-4 2-2 1-2v-1l11-21-1-2-3 1-7 4-2 1-3 2-12 2v-1l-1-2v3c-4 9-6 19-6 29v13c0 2-2 4-1 5l6 9 1 5-4 1-6-2-17-9c1-6-2-13-8-17-4-3-10-5-15-7l-17-4-9-1-1 1 11 9-2 3-12-6c-3-2-6-3-9 0l10 9v2h-12l-1-1 1 1 13 3 9 4-13 5v2c12 5 25 8 38 7h6c7-4 13-4 20-2l7 2 6 3 2 3 1 7c2 7 2 15 6 20 4 7 10 13 16 19l-7-1-22-5-16-4-23-8-24-8-13-5-21-8-17-5 18-36 11-23 15-28 12-22 6-10 12-21 10-12c6-8 14-14 23-19 4-3 8-5 14-2a1720 1720 0 0 0 61 19l31 13c3 1 5 0 5-4l2-7 3 5 4 8 5 4v1c5 6 0 12 1 18l2-1c3-10 10-11 18-10h1c5-1 11-2 15-7 9-3 11-10 14-19l-27 6 4-6h3c3-8 9-15 11-23s2-18 2-27v-22l-20 26c-11 12-13 27-12 42 0 7 1 14-4 20v-1c-2-10-4-19-11-27l-3-4 4-12 2-5a7916 7916 0 0 0 25-54c6-12 12-23 16-35l18-45 2-4 3-7 27-82c6-18 8-36 3-54l-11-34c-4-14-3-28-3-43l-1-51-2-18v-4c4 0 6-4 10-2 10 1 15 15 14 23l-6 35-2 18 2 1 2-13 8-48 12-43 2-6 1-1c6-12 8-25 17-35a160 160 0 0 1 14-2l1 2c5 5 3 10 1 15l-16 53-9 35 2 1 2-7 6-23c6-19 11-38 18-56 3-9 6-18 12-25 3-3 7-5 11-4 4 2 8 4 8 9l-1 13-9 28-16 61-1 7c3-3 4-6 5-10l19-72c2-8 5-16 12-22l2-1 4 1c8 3 11 9 12 16l-1 7v1l-2 11-7 15-14 58-1 5 1 1 4-11 4-19 6-22c2-10 5-20 13-28l5-2h1v1l1-1 1 1 4 5 2 3v25l-1 11-7 49-3 18-1 10-5 29-3 16-1 2-5 24-4 18c-1 12-3 23-3 35l-2 29v13l-3 52-2 35v10h2v-10l1-35 1-4 3-44 3-19 20-67 2-6 2-2 7 11 9 21-7 5c-4 2-6 5-10 6-8 4-12 11-15 19l-2 8 3-4c2-8 7-15 15-20l17-13 12-8c12 0 12 1 15 11l1 4-5 10-6 9-8 12c-2 3-4 8-2 11 4 6 8 11 9 18l2 8 2-1c-2-7-3-15-7-21-4-7-3-12 0-18 2-3 3-4 5-3l13 26 5 8 11 12 2 2c6 7 13 12 21 14 1 1 3 0 4-1l6-1-8 17c-7 19-20 33-34 47-3 3-3 4 0 6l1 1-2 22-3 79c0 3-2 5-3 8-3 5-7 9-6 15l-2 1-6 17a280 280 0 0 1 0 12l2 11v1l1 6a1146 1146 0 0 1-5 26l-1 21c-2 9-3 19-7 27-3 11-8 20-14 30l-18 28c-7 11-17 20-29 25-9 3-18 3-26 1l-18-6c-6-3-13-5-19-9l-22-14 4-5c6-7 12-14 16-21 14-23 24-47 33-72l12-40c0-3 2-3 4-3l2 3v11l1 14 2 1 14-14 5-7 1-1 6 3c5 5 13 3 17-3 6-10 8-21 4-33h1l5 1c11-2 20-7 25-17 3-7 0-14-7-17l-2-2a733 733 0 0 0 13-15l2-4 10-23c-4-4-6 0-7 2l-10 11-1-5c0-4 0-8-3-11-8 3-15 6-19 14l-3 1-7-8-5 2-7 3-1-6-3-13-1-1-2-8c-1-3-1-6-5-7l-4-1-1-1-2-1 1-23 1-9h-1a380 380 0 0 0-5 50l-1 8-4 35v9l-2 4-6 34-14 49c-5 14-9 29-15 43s-12 27-20 40c-5 10-13 19-19 28l-10 10-4 4-5 4m28-230v-1h1l2-17-1-7-3-2v-1l1-5v-12l-1-10 1-19-2-2-6 11a601 601 0 0 1-13 22l-1 1-7 9-2 3-4 8-11 21s0-1 0 0c-1 4-2 9-1 13 1 5 5 9 7 14l11 11 1 10-15-4c-5-1-10 0-15 4-2 3-6 6-6 9-1 8-7 8-11 11l-3 2 9 6 5-2 8 9v1c6 5 13 7 22 7h5c9 1 17-4 25-7 0-1 0-2 2-3l1-6c7 6 13 9 21 5l1-1h1l2-2h1l3-2v-2h1l9-11 16-32 4-11c-11 2-20 5-29 11h-2l3-13 3-13v-13l4-5 16-21 5-10 7-20v-2l2-15-1-1-3 6c-3 2-5 3-4 6h-1l-1 2-3-6v-2l-1-11-11 18-4-9-5 21-4 10c-3 17-7 34-19 47-3 3-5 6-9 2h-1m127-66h-1l-1 1h-1l-5-2c-2 0-4-3-6 1h-2l-2 1-2-1c-4-2-6-1-5 3l4 9 11 9 8 8 3 1 13-6 5-7 7-15-1-6h-4l-2 2h-1l-8 5-3-4v-1l-5 1h-1l-1 1m-360 212 1 1-1-3v-2h-1l1 4m209-221 2-2 4-7 6-6c7-2 14-3 20-6l26-14 13-12-1-1h-13l-20 5c-2-1-3-3-5-3l-14 4-15 9v-16c2-11 0-21-6-32v-1l-2-10-3-3-1-3-2 6c-8 9-12 21-14 32v26c-9-2-9-2-11 7l-1 6c0 6 0 12-3 18-4 8 1 15 8 15 4 0 7 1 9 3 8 8 16 7 20 0 1-4 1-9 3-13v-2m83-62v1l3 3 2 2 6 7-4-15-7-14 12-3 2-2-2-2-26-13c-9-5-9-7-1-13l23-16v-5l-2-1c-10-1-21-5-32-2-4-2-8-2-12 0-5 0-9 2-12 7l-2 1-2-3-6-4-7 1-16 8c-2 1-3 3-3 5l5 2 6 1 1 20c0 11 3 15 13 19 4 3 9 5 14 4l13-3c8-1 16-2 24 2v1l8 10v1l2 1m-302 249-3-4c-2-3-4-7-7-9l-27-18-3-1-1 4 11 22c5 11 12 21 25 25 4 4 11 4 14 10a6385 6385 0 0 1-9-29m291 85c3 5 8 9 16 10l19 1 19-11 11-11c8-6 11-15 15-24l1-17c0-10-2-19-12-25-8-6-16-11-26-5h-2l-19 6c-14 7-25 16-31 32-4 8-4 16-2 25 2 7 5 13 11 18v1M408 967l-6 2-11 10-6-1c-5-1-11-3-16 0l-5 1 17 14c3 3 6 5 4 10-1 5 1 10 4 15l3 5c3 4 4 4 9 0l1-1 5-1c8 0 16 2 25-3l15-3 2 7c3 11 7 22 14 31 3 5 6 8 13 8l15 2 22-2 3 15c5 20 25 33 43 32 6 0 9-3 11-8l-8-3-3-5h2l13-18 3 3v2l1 2 4 2v1h2v-18c-4-14-13-23-27-27-9-2-19-3-28 1l-6 1v-5l-6-17c-4-7-9-12-17-16l-15-7-22-2c-3 0-5 0-6-4-5-7-10-13-18-18l-17-6-13 2-1-1m206 89c-4 10-4 19-2 30l4 9 3 11h1l8-7c10-6 17-13 23-23 3-6 6-13 6-22l-17 10-13 11v-1c0-9-3-17-8-26l-5 8m158-248-6 13 1 1 10-16c2-11 5-22 1-33-1 12 0 24-6 35m-17 215h-1c-8 4-9 19-1 26 2-2 3-9 8-3l6 7 1-7c1-8 1-16-3-23-4-5-8-5-10-1v1m-75 153c2 2 3 5 7 2l-5-6 10-9v-1h-7l-5 1h-2l-1-1v-3l11-5-1-1-11 1-15-14c0 8-5 9-10 9l3 4 8 10 2 1 2-3 2-2 3 7 2 2 7 8m-294-48 13-10c-1-1-4 0-6-2-3-3-7-2-11-1l-35 9-10 5h-2v2l22 4c10 2 20 0 29-7m376-376 1 1 1-1h-2m8-46 1 1 1-1h-2m0-2v-2 2m-10 119-1 1h1v-1m9 232h1-1m2-355s0 1 0 0m-6 56s-1 0 0 0m1-9s-1 0 0 0z"
  />

  <path
    fill="#5B5D49"
    d="M149 774c-4-5-4-9 1-15 3-3 7-6 12-8 2-1 6-1 6 4l3 4 7 4 19 16 11 6 1 1 2 1 1 1 2 1 7 5 3 1 8 5 3 2 6 4 11 6 16 8 11 6a344 344 0 0 0 73 25h12c7-1 14-2 20-7l2-4-3-16 18-11 2 2 2 9-3 26 2 1c-1 8-5 15-13 19l-9 7-14 3-26-3-18-3h-1l-1-1-3-1-24-9-8-2-2-1h-1l-6-3h-1l-3-2-3-1-2-1-2-1-2-1-2-1-2-1-2-1h-2l-28-15c-5-2-9-5-14-9l-8-4-2-1-3-2-8-5-7-4-2-2-3-1-1-1-4-2-1-1h-1l-1-2-7-4-8-6-1-1-3-2v-1l-1-1-1-2-4-8z"
  />
  <path
    fill="#D7973E"
    d="m491 1166 13-3 14 8v4l6 3-1 2-17-3-19-1-16-4c7 1 12-2 18-5l2-1z"
  />
  <path
    fill="#51360D"
    d="M471 1172h-1l-17-1-25-8c-6-6-12-12-16-19-4-5-4-13-6-20l-1-7-2-3-6-3h2l5 1 4-1-1-5h4l4 5-5 3v13l5 14c4 9 10 16 19 20 8 5 17 8 27 9l10 1v1z"
  />
  <path
    fill="#E0AC51"
    d="m204 1039 6 3c3 2 3 4 1 7l-10-6c-5 5-6 10-2 15l1 7c-8-5-21-33-19-39l23 13m-17-5-4-1 9 15 5-7-10-7zm44 53c-4-1-7-2-9-5-6-5-13-10-14-18l3-3 5 9c2 2 4 2 6-1 1-2 1-5 3-6 3-5 9-4 12 2l-5-1c-4-1-8 1-8 4 0 4 3 6 6 5l10-2-6 7 7 1-10 8m2-7-11-8c-2 5 1 6 4 8 2 2 4 3 7 0zm1-95v-8c0-5 3-8 7-8 6 0 10 2 11 7l2 8c-1 6-10 9-15 6l-5-5m4-6c-1 4 2 6 5 8l5-2-1-8-1-1c-1-1-3-3-5-2l-3 5z"
  />
  <path
    fill="#D49F4A"
    d="M406 917c-5-1-8 1-7 6 1 3 0 5-3 5l-1-3 2-22c0-2 2-3 3-4l4 3 11 22c-2 3-4 3-5 0l-4-7m-2-4-2-8h-1l-3 10 6-2z"
  />
  <path
    fill="#E0AC51"
    d="m220 1035-3 1-14-12c-2-1-2-3 1-4 2-1 4-2 3-6-1 0 2-4 5-5 2-1 14 7 15 10v4l-12-7h-5c-1 2-2 5-1 7l8 7 3 5zm-9 75 8 7 1 2h-3l-16-13-5-2-4 7-2-8 9-19 2 1-2 10c-1 3 0 5 3 7l9 8z"
  />
  <path
    fill="#51360D"
    d="M541 871c6-3 7-8 9-12l16-39 8-21 1-1 1 1-18 45c-4 12-10 23-16 35l-1-8z"
  />
  <path
    fill="#E0AC51"
    d="M212 1101c-7-6-4-12-2-20l7 4 9 5 3 5c-4 3-2 7-4 11-1 2-2 3-4 1l-9-6m-2-10c2 3 3 6 6 8 5 5 7 4 9-4l-13-7c-2-2-4-1-2 3zm56-144 5 5v5l-11-7-1 1c-5 7-5 7 2 13l2 5-5-1-8-5c-3-3-3-5 0-8l3-4c3-6 6-7 13-4zm11 30c2-2 4-3 6-1l11 8 1 4-1 1-9-6c-2-1-5-2-7-1-2 2 0 4 2 6s5 4 6 7c1 2-1 6-2 8-3-6-5-13-13-14l6-12zm41-30c2 8 1 12-5 15h-4c-5-2-8-5-8-10 0-3 1-7 3-10 2-4 11 0 14 5m-7-1c-2-1-5-2-7 1l1 7c2 2 4 5 8 3l2-3-4-8z"
  />
  <path
    fill="#515544"
    d="m466 965-22-6 2-1 1-5c0-6 3-8 8-6h2c-3 4-2 8-1 12 1 2 2 3 3 0l4-2 3 4v4z"
  />
  <path fill="#5B5D49" d="m245 859-24-13-36-18 21 7 26 14 10 6 3 4z" />
  <path
    fill="#E0AC51"
    d="M244 1039c2 2 2 7 6 6l7-5v-7c3 4 3 10 1 13-3 4-8 4-11 3s-7-4-7-6c0-11 1-11 11-13l-4 3-3 6zm-24-43 5-3 1 1-1 4 15 8c-4 5-6 6-10 2l-8-6-4 5c-4-4 1-7 2-11zm201-78-1 6h-2l-2-16 7-4 5 1c3 2 3 16 1 20l-2-5-1-9c0-2-2-3-3-4-1 2-3 3-3 5-1 2 0 4 1 6zm46-10 2 8-1 1-3-2-2-16 12-4 4 17-2 3-2-2-1-8c-1-2-2-6-4-6-3 0-3 3-3 6v3zm15 46-3-7c0-4-1-7 3-9 2-1 6-3 8-2l5 9-1 3c-1 9-4 10-12 6m9-8-1-4-4-3-4 4 1 6 6 3 2-6zm-25 15-3-4-2-25c4 2 4 2 5 17 7-2 8 5 12 8-6 5-6-5-10-3l-2 7zm-199 33c-1 3-2 6 2 9l3-9c3 2 3 5 1 7l-3 4 4 2 5-3v-2h2l-1 7c-2 2-5 3-8 3-5-1-10-9-9-14l4-4zm180-79-1-6c0-4 1-7 6-8 4-1 7 0 8 5 2 8 1 11-6 12l-7-3m3-3 5 3 2-5c0-3-1-7-5-6l-3 7 1 1z"
  />
  <path fill="#D49F4A" d="m439 906 1 7 5 5-2 4c-10-2-5-13-11-18l6-8 3 8-2 2z" />
  <path
    fill="#E0AC51"
    d="M292 965c2 6 9 7 12 11l2 1-2 4-5-3-11-9-2-5 5 1h1zm-55 85 10 5c3 2 4 4 2 6-15-5-19-9-16-16l4 5z"
  />
  <path
    fill="#5B5D49"
    d="m245 859 7 3a2281 2281 0 0 1 30 19l-17-7-18-9 1-2a77 77 0 0 1-3-4z"
  />
  <path
    fill="#8B712D"
    d="m508 972-3-6v-1l4 1 2 2v-1l-2-1-1-4 1-2 7 4 2 2 1 11-4-10-1 5h-6z"
  />
  <path fill="#49340E" d="m462 799 16 8 20 14-7-3-19-13-10-6z" />
  <path
    fill="#E0AC51"
    d="m257 1023 11 8c-1 5-4 2-6 1l-15-11c2-3 3-4 5-1l5 3zm36-64v-3l3 1c3 6 9 9 16 10-4 6-15 1-19-8z"
  />
  <path
    fill="#D49F4A"
    d="M457 947h-2c-5-2-8 0-8 6l-1 5-3-17h1l4 2c2 3 4 2 6 0l3-1v5z"
  />
  <path
    fill="#E0AC51"
    d="m268 1022-8-5c-2-2-3-5-3-8 5 5 13 7 15 15l-1 1-3-3z"
  />
  <path fill="#49340E" d="m324 874 18 3 26 3c-14 4-27-1-40-4l-4-2z" />
  <path fill="#C28A35" d="m509 966-4-1 5-15h1l3 4 2 10-7-4-1 2 1 4z" />
  <path
    fill="#AF913C"
    d="M428 945c3-4 8-5 11-2s2 6-1 10l-1 1h-1l-2-4 3-5h-9z"
  />
  <path fill="#49340E" d="m287 861 8 2a600 600 0 0 1 1 2c-3 0-6-2-9-4z" />
  <path fill="#573C11" d="m436 954 1 1h2l2 3-22-8 7-2 3 4 7 2z" />
  <path fill="#482B08" d="M171 824h-38c12-4 25-1 38-1v1z" />
  <path fill="#5B5D49" d="m282 881 26 10-1 3-25-13z" />
  <path fill="#D49F4A" d="M459 959c-1 3-2 2-3 0-1-4-2-8 1-12l2 12z" />
  <path fill="#51360D" d="M511 950h-1v-11l5-1-4 12z" />
  <path fill="#422908" d="m404 851-2-1a543 543 0 0 1 2 1z" />
  <path fill="#49340E" d="M399 1157z" />
  <path fill="#5B5D49" d="M171 824v-1a146 146 0 0 1 14 5l-14-4z" />
  <path fill="#E0AC51" d="m246 1017-7-4 4-3h1l2 7z" />
  <path fill="#49340E" d="m513 836 6 7c-4 0-5-3-6-7z" />
  <path fill="#45330A" d="m149 774 4 8-5-7 1-1zm10 15 8 6-8-6z" />
  <path fill="#49340E" d="m506 829 6 6c-4 0-5-2-6-6z" />
  <path fill="#AF913C" d="m429 952-3-4 2-3 1 6v1z" />
  <path
    fill="#49340E"
    d="m523 848 6 6c-4 0-4-3-6-6zm-23-24 6 5c-3 1-5-2-6-5z"
  />
  <path fill="#80702E" d="M439 955h-2l1-2 1 2z" />
  <path fill="#51360D" d="M542 879z" />
  <path
    fill="#F4CBA4"
    d="M148 661c-12-6-20-15-26-25-8-15-14-31-14-48 0-10 1-19 6-28l5-7 12-7 8-2c10 2 16 10 21 17l2 6 4 46v5l1 2v14l-1 20c0 2-2 4-4 5l-14 2m-29-72 1 2 1-5c0-7 2-12 6-17 2-2 4-3 8-2 5 1 8 5 11 9 2 3 2 4 0 6-12 13-11 35 2 49v-4l-7-18c-3-9 1-20 8-25 6 5 3 14 9 19l-10-30c-7-12-19-12-24-2-3 5-3 11-5 18z"
  />
  <path
    fill="#341E06"
    d="M531 379v-2l2 1 1 2 1 2 1 2v1c4 15 6 30 1 45-4 12-12 21-21 29l7-9c9-12 17-24 14-41l-1-11-5-19z"
  />
  <path
    fill="#45330A"
    d="M439 346c19-1 34 3 40 6-31-8-61-5-90 6l-1-1 6-3c14-4 27-8 41-7l4-1zm-88 25 10-5c7-3 15-6 23-7a240656 240656 0 0 0 0 2l-1 1-17 4-15 5z"
  />
  <path fill="#482B08" d="M393 340v-1l22-5 1 1-23 5z" />
  <path fill="#49340E" d="m381 342-12 5-1-2 13-3z" />
  <path
    fill="#3C2306"
    d="m119 553-5 7c0-3 1-6 5-7zm388-87-1-2 4-1h1v1l-1 1h-1l-2 1z"
  />
  <path fill="#341E06" d="M511 463h-1v-1l3-2 1-1h-1 3v1l-2 2-1 1h-2z" />
  <path fill="#49340E" d="m381 342 6-2v1a212 212 0 0 1-6 1z" />
  <path fill="#3C2306" d="M513 459h1l-1 1v-1z" />
  <path fill="#45330A" d="M348 372z" />
  <path
    fill="#edede7ff"
    d="M511 463h2l1-1 2-2v-1c9-8 17-17 22-29l2-3c3-14 1-28-2-41l-2-2-1-2-1-2-1-2-2-4-1-2-1-2-3-4-1-1-1-1-1-1-1-1-1-1-1-1-1-1v-1l-4-2v-1l-4-2v-1l-3-2 1-47 2-17h1l54 2 40 1h48l5-1h3l17 1 13-1h3l4 1h220l5-1h3c5 2 4 5 4 8l-1 34-2 62-1 40h-36c-11 1-22 4-33 9v-36h22c4 0 4 0 3-3l-3 1v-1c-6-3-11-2-16 0h-1c-4-1-5-2-5-6l2-55c0-3 1-4 4-4h13l4-3-4-2h-11c-4 0-5-1-5-4v-19l-2-6h-1l-1 2-1 22c0 4-1 5-5 5h-35l-5 1h-2l-15-1-6-8v-3c5-1 1-4 2-6 2-3 2-6-1-8-4-3-7-2-11 1 9 5 3 13 5 19l-8 1c-2 1-5 3-8 3l-29-2-1 2h-10c-9 0-8 1-8-8v-13l-2-5-2 1-1 19c0 5-1 6-6 6h-49l-5 1h-2l-3-1 1-2 1-15-2-3v-1l-1 2-1 9-1 3c0 8 0 7-7 7l-17 1h-35l-2-4v-4l-2 16-2 49c0 10 0 10-10 10l-5 2 2 2h14v3l-1 2-1 2-2 54c0 6 0 6-6 6l-6 1-3-1h-7l-6 1-4 2 4 1h29l-2 36-1 19 2 3 2-3 2-50c0-3 1-5 4-6h45a3670 3670 0 0 1-12 40c-3-12-7-15-16-16-5 0-7 2-9 5l-3 9 4 33v17l-71-2c-5 0-9-2-12-6v-8l-2-6-11-2v-22l3-3c6-6 4-15 6-22v-10l1-15h3l-1-1v-1m22-104v1l2 2a1308 1308 0 0 0 33-3l2-30c0-2-3-5-4-5h-29l-2 2h-2l-1 3a350 350 0 0 0-1 28l2 2z"
  />
  <path
    fill="#F4CBA4"
    d="m500 632-3 29c0 2-2 3-5 6l-2-10h-1c0 10 2 21-6 30l-2-7h-1l-6 24h-2l-2-8c-3 7-3 15-10 21l-1-9c-4 8-4 17-13 21l-2-7-12 24-5-12c-2 9-5 16-10 22l-2-11h-2l-4 17-7-9-4 4h-2c1-10-5-21 4-31-18 4-34 5-50 1l3 9 1 17c0 4-2 5-6 3l-2-3v16l-1 1c-5-4-7-11-9-17l-3 8c-1 2-3 3-5 0l-11-15-1 7-2 3-3-2-9-15-3-2-1 3-2 7c-8-7-12-16-15-26l-4 8-2 3-4-3-3-10-7-14-3 15c-8-7-8-17-12-26l-2 4-1 4-3 4-3-4-6-18-1-4h-2l-3 10c-8-6-3-17-10-23l-3 6-4-7-2-19-2-5-1 10-3-4-1 5h-1l-3-6-2-14-2-1c-5-25-3-50 0-76l12-1h38l8 26c0 2 2 3 3 4l1 3a177 177 0 0 1 13 12l3 2s-1 0 0 0l2 1c11 8 24 9 37 8l9-4h1c6-1 12-3 16-8l8-9 2-3 2-2 3-6c6-9 7-18 8-28 0-6 5-8 8-10l12-1c8 0 16 5 20 12l4 9 1 3c7 13 12 28 14 43 1 7-2 13-5 18l-5 3c-9 3-16 8-25 5l-2-1h-3l-2-4-5 3h-11l-13-3h-21l-6-2h-21l-8 2-12 6-6 3-2 1c-2 1-3 2-3 4-3 6-7 13-8 20-1 9 5 16 13 21v-2l3-17 4-3 2 4 1 2 3-10 3 2c4 15 14 24 26 32l11 6 12 5 4 1s-1 0 0 0l25 5h12c7-1 13-1 19-3l12-6c12-4 20-13 27-23l3-5 5-10 2-7 5 1c4-2 4 0 4 2l4 20c6-9 12-16 11-25-1-14-9-22-22-26-7-2-15-2-22-2l-11 2c3-6 5-12 4-19l-2-12 4 2c17 13 47 10 60-3l5-6 4-4 3-5 2-3s0 1 0 0l2 1 1 4 3 51z"
  />
  <path
    fill="#F4CBA4"
    d="m291 459 1-1 1-1 2-2 1-1 1-1 1-1 1-1 2-2 1-3 1-2 2-2 1-2 3-3 3-6 2-3 1-1 5-8 7 36c7-2 8-6 10-11l10-24 1-3 4 12c1 11 8 18 15 26 3 4 5-1 7-3l2-4v-7l1-1 4-22a66010 66010 0 0 1 2 2l1 2 1 2 3 3v1l2 2 1 2 1 2 2 1 5 5 10 7 4 4 5 1 1-24 4 1 5 6 6 7 18 13c2 1 4 0 4-3l1-15c8 7 14 15 18 24l6 8 4 10 1 7 5 27v4l-4-3-4-7c-3-8-9-13-15-18v-2c-5-3-10-7-17-6l-23 1-3 2-13 12c-6 5-4 9 3 12-8 7-15 15-18 26l-2-2c-10-6-21-5-31-3l-1 1-2 1-2 2-3 2-7-14-5-5-5-6c1-2 2-4 1-5l-7-15-3-3-2-1-2-1-2-1-19-3-1 2h-3c-3-1-6-2-9-1l-16 5-3 1-5 3-6 3-5 6c-9 7-14 19-11 23h3l-7 20-2-1-5 1h-1l-9 1-5-1-26 1 5-14 3-11h1l-1-1c2-10 9-17 14-25a206 206 0 0 1 25-30c2-2 4-1 4 2l1 12h2l1-1h1l2-1 2-2c5-3 9-5 9-11l1-1 16-23 1 5-1 18c0 2 2 3 3 5l2-2h1l3-3 1-1 1-1z"
  />
  <path
    fill="#F4CBA4"
    d="m351 851-54-17-18-8-11-6-16-8-11-6v-1l-6-3-3-2-8-5-3-1-7-5-2-1-1-1-2-1-1-1-11-6-19-16-7-6c-2-4-1-7 2-9 2-2 1-6 2-9a1092 1092 0 0 0 5-25l1 2 6 12 4-11 1 1v3l1 6 2 3c2 8 5 16 12 21l6-3c5 8 8 18 18 22l4-6 9 13 12 12c1 1 4 0 4-1 2-3 4-2 7 0l21 18 2-14c9 8 13 21 27 24l1-10 16 14 1-1c4-7 4-7 9-1l10 6-1-8c7 4 12 11 22 6h4c1 6 1 11 4 15l-1 4-9 6-22 4z"
  />
  <path
    fill="#C78B19"
    d="M181 550h4l2 1 28-2c3 0 5-2 8-4l2 1 4 3c1 3 1 4-2 4h-11l-39 2 5-3-1-2z"
  />
  <path fill="#4D2F0B" d="M501 632a1418 1418 0 0 1-3-52l4 19 2 38-3-5z" />
  <path
    fill="#604215"
    d="m352 851 21-4 9-6 1-4c-3-4-3-9-4-14l2-3 2 4 3 16-2 4c-6 5-13 6-20 7h-12z"
  />
  <path
    fill="#4D2F0B"
    d="m177 555 39-2h11c3 0 3-1 3-4v-1h1c2 5 7 3 10 5v2h-38l-12 1a220 220 0 0 1-14-1z"
  />
  <path
    fill="#A66924"
    d="M177 555h-4c-5 0-11 2-15-5a51939 51939 0 0 1 24 2l-5 3z"
  />
  <path
    fill="#F4CBA4"
    d="M283 466c-1-2-3-3-3-5l1-18-1-5a1190 1190 0 0 1 3-5 1249 1249 0 0 0 0 33z"
  />
  <path
    fill="#3C2306"
    d="M225 545h-2l-33 3 2-2 26-1 3-2 4 1 9-1h1l2 1-7 1-2 1-3-1z"
  />
  <path
    fill="#281602"
    d="m498 515 1 22 10 2-2 1-7-1-1 7h-1l-5-21-1-2v-2l3 3 3-9m-2 12h1l-1-1v1z"
  />
  <path fill="#F8D466" d="m220 543-2 2h-26a440 440 0 0 1 7-15l-5 14 26-1z" />
  <path
    fill="#FCE788"
    d="m509 465-1 15v10c-2 7 0 16-6 22l1-4 3-16v-25l1-1 2-1z"
  />
  <path fill="#281602" d="M506 467v25l-3 16 1-13 1-26 1-2z" />
  <path fill="#F8D466" d="m423 429-4-1-1 23v-3c0-6 2-13-2-20v-6l7 7zm68 84z" />
  <path fill="#EEAF17" d="m190 548 33-2c-3 1-5 3-8 3l-28 2-2-1 5-2z" />
  <path fill="#F8D466" d="m383 419-2-1-4 22a268 268 0 0 1 3-25l3 4z" />
  <path fill="#482B08" d="m181 716-1-2-4-4-1 1 2-7h2l2 12z" />
  <path fill="#281602" d="M416 429c4 6 2 13 2 19v4l-5-1c7-5 3-11 4-17l-1-5z" />
  <path fill="#341E06" d="m167 618-1-5 2-1-1 22a164 164 0 0 1 0-16z" />
  <path
    fill="#F8D466"
    d="M263 462c0 6-4 8-9 11l9-11zm113-21v7l-2 4 2-11zm109 38z"
  />
  <path fill="#4D2F0B" d="M508 666v15-15z" />
  <path fill="#281602" d="m487 514 4 3v2h-1l-2-2-2-2 1-1z" />
  <path
    fill="#F8D466"
    d="M283 466v-1l2-1-2 2zm-29 7-2 2 2-2zm47-24-2 2 2-2zm-6 6-2 2 2-2zm95-25-2-2 2 2z"
  />
  <path fill="#281602" d="m491 519 1 2-2-1 1-1z" />
  <path
    fill="#F8D466"
    d="M248 477h-2 2zm143-45-1-2 1 2zm-7-10-1-2 1 2zm10 13-2-1 2 1zm-2-1-1-2 1 2zm-140 41-2 1 2-1zm133-51-1-2 1 2zm-183 94 1 1h-1v-1zm89-59-1 1 1-1zm-1 1-1 1 1-1zm-40 16h-1 1zm43-19-1 1 1-1zm-29 4-1 1 1-1z"
  />
  <path fill="#604215" d="M376 822h-1 1z" />
  <path
    fill="#DC9533"
    d="m622 164 1 1 2 2c6 8 6 18 7 27l-10-1c0-2 3-4-1-6 0-8-3-13-8-17-3-2-8-3-11-2-6 1-12 5-13 13l-2 15c-1 7 0 13 3 19l2 4 1 1v1l-4 1v1l-1 2c-6-9-9-18-7-29l-6-2c1-11 4-21 12-29 10-8 20-9 32-5l3 4zm32 10 2-3 14-12c12-4 20 2 27 10l7 24-7 1-5-14c-2-10-11-15-20-11-6 4-10 8-12 15l-1 15 3 17-5 2c-4-7-4-15-3-23l-5-1 5-20z"
  />
  <path
    fill="#DB9434"
    d="m858 194 4-19h2l7-11 3-2h23l1 1 2 1 3 3 1 1v1l1 1 1 2c5 6 6 13 6 20-2 2-5 2-8 2-1-7 0-14-6-20-5-7-17-8-23-1-6 8-9 17-8 27l2 9v5l-2 1-2 2-3-19c0-3-1-4-4-4zm-26-30c7 8 11 18 10 29l-9 2-3-17c-4-10-18-14-24-6-5 7-7 16-7 24l2 14 1 3-4 6c-4-8-5-16-6-25l1-6c0-2-1-6 1-8 3-3 3-6 3-9l3-4a148 148 0 0 0 6-5 1091 1091 0 0 0 20 0l3 1 3 1z"
  />
 
  <path
    fill="#53300D"
    d="M953 286v4l-1-1-14-1-2 2v2l-1 30v2l-1 9-1 47v16l-1 4-1 33-2-1 4-143c5-5 11-1 16-3h4z"
  />
  <path
    fill="#FCE788"
    d="m924 288-5 1a283015 283015 0 0 1-214-1h3l20-1 30 1 56-1 68 1h42z"
  />
  <path fill="#edede7ff" d="m933 289-4 142-2 1 1-40 2-62 1-34c0-3 1-6-4-8l6 1z" />
  <path fill="#FCE788" d="m659 288-5 1h-48l-40-1-54-2 28-1 53 2 39-1 27 2z" />
  <path
    fill="#422908"
    d="m694 193-5-16c-3-7-11-9-17-5-7 5-10 12-10 22l-3 5 1-15c2-7 6-11 12-15 9-4 18 1 20 11l5 13h-3z"
  />
  <path
    fill="#482B08"
    d="M762 193c0-7-2-14-7-20-4-4-10-4-16 0-5 5-7 12-7 19v1l-1 1-2 4h-1c-1-9 2-17 7-23 7-11 19-10 25 1l4 19-2-2z"
  />
  <path fill="#A66924" d="m729 222 3-3 10 2c3 1 4 6 1 9l-4 5c-6-2-7-8-10-13z" />
  <path fill="#BB782A" d="m798 219 4-6 7 8 2 1 2 4v1l-9 5-6-13z" />
  <path
    fill="#3C2306"
    d="m831 194-4-16c-1-5-5-7-10-8s-9 3-11 7l-5 18-2 1c0-8 2-17 7-24 6-8 20-4 24 6l3 17-2-1zm-210-7-1-1-2-5c-2-7-6-12-13-12-6 0-13 6-15 14l-1 10-2 3 2-15c1-8 7-12 13-13 3-1 8 0 11 2 5 4 8 9 8 17z"
  />
  <path fill="#BB782A" d="m657 218 5-2h1l6 6c5 2 3 4 2 6l-6 4-8-14z" />
  <path fill="#A66924" d="m589 222 4-1v-1l5 1c4 1 5 6 2 9l-5 4-7-9 1-2v-1z" />
  <path
    fill="#3C2306"
    d="M896 175c-6-8-16-6-21 1-3 5-5 10-5 17l-3 6c-1-9 2-18 8-26 6-7 18-6 22 2h-1z"
  />
  <path fill="#F9E485" d="m511 286-2 17-1 47-3-3a2664 2664 0 0 1 3-53l1-8h2z" />
  <path fill="#BB782A" d="m865 217 2-2 2-1v-5l7 12-2 9c-6-2-7-8-9-13z" />
  <path
    fill="#E19F42"
    d="M796 171c1 3 1 6-2 9-2 2-1 6-1 8l-1 6h-3c1-8 1-17 7-23z"
  />
  <path fill="#855118" d="m874 230 2-9c5 1 7 7 4 11-2 3-4 2-6-2z" />
  <path fill="#F4CBA4" d="M719 195c0-9 2-17 8-25l-1 4c-4 6-4 12-4 20l-3 1z" />
  <path fill="#FCE788" d="m692 288-13 1-17-1 12-1 18 1z" />
  <path fill="#53300D" d="M896 175h1c7 5 6 12 7 19l-2-1-6-18z" />
  <path fill="#653B0E" d="m665 232 6-4c1-2 3-4-2-6l4 1-3 9h-5z" />
  <path fill="#683E16" d="m804 232 9-5c-1 6-3 8-9 5z" />
  <path fill="#A66924" d="M728 198h1a157 157 0 0 1-1 0z" />
  <path fill="#edede7ff" d="M708 288h-3 3z" />
  <path fill="#DC9533" d="M663 216h-1 1z" />
  <path fill="#A66924" d="M731 215v-1 1z" />
  <path
    fill="#edede7ff"
    d="M829 534c-1-11 3-21 7-31 5-13 14-24 25-33 8-7 16-11 25-14 8-2 17-3 26-1a78 78 0 0 1 55 48c5 10 6 20 7 31a135 135 0 0 1-19 49c-7 8-15 15-25 20-8 5-17 9-26 9-17 1-32-3-45-15-7-7-15-14-20-23-6-11-10-23-10-37 5 0 9 1 12-2l-1-2-11 1m86 19v-1h-1v-1l-6-7-2-3-2-2v-1c2-13 1-15-10-13l-6-8-9-15v-1l-6-9v-1l-9-14-2 1 1 8 2 4 9 13v1l2 3v1l11 16v1l1 3 1 2-1 4c-2 5-1 6 4 8l6 1c2 0 3 2 4 4l24 27c6-2 2-5 1-8h-1v-1h-1v-1h-1v-1h-1v-1l-5-6v-1l-2-1v-1h-1m-19 57s-1 0 0 0l3-21-2-2-3 1 1 22h1m2-132 3 5 3-20c0-2-2-3-3-5l-4 4 1 16m64 56c-3 1-7-2-10 1v2l16 1v-2l-6-2z"
  />
  <path
    fill="#edede7ff"
    d="m819 475-6 12c-6 12-9 24-10 38-1 12 0 24 1 37h-10l-18-1h-22l4-33 1-42-2-5v-5h18c4 0 4 2 3 4v55l3-15 1-37c0-4 1-5 5-5h25l5-2 2-1z"
  />
  <path
    fill="#edede7ff"
    d="m851 446-20 16-12 12-32-1c-4 0-5-1-5-5l2-29 1-34a2651 2651 0 0 0 34-1l34 1-2 41m-46 7 1-1h1l1-2 1-2h1l1-1 1-1h1l5-1v1l5 4 1 1 2 1v1l3 1h2l-1-2-11-12c3-6 12-9 14-16l-1-2-16 14c-12-13-12-13-16-11l14 14-8 7-9 12h2l1-1h1l1-1h1l1-2 1-1z"
  />
  <path
    fill="#edede7ff"
    d="m952 289 1 2v1l-2 3a20587 20587 0 0 0-3 88l-1 55-14-5 1-27-1-10v-16l2-17 2-34-2-5v-2l3-5-1-12-1-13v-2l16-1z"
  />
  <path
    fill="#edede7ff"
    d="m785 405-1 34-2 29c0 4 1 5 5 5a599 599 0 0 1 31 2h-14l-24-1 1-17 2-48h-1l-1 6-1-3c0-7 0-7-8-7h-58l3-2 48 1 19 1h1zm162 33a3458 3458 0 0 1 5-124l-1 26-1 62-1 35-2 1zM754 561h22l18 1h10v2h-57l-4-3h11z"
  />
  <path fill="#F9E485" d="m880 403 3-1c1 3 1 3-3 3h-22v36l-3 1 1-38h6l18-1z" />
  <path fill="#6E4817" d="M856 404a52105 52105 0 0 0-2 21v-1l1-20h1z" />
  <path fill="#683E16" d="M780 475h24a247 247 0 0 1 13 1h-37v-1z" />
  <path fill="#F9E485" d="M854 425z" />
  <path fill="#edede7ff" d="m933 396 1 10-1 27h-2l1-33 1-4z" />
  <path fill="#5E380F" d="m829 534 11-1 1 2c-3 3-7 2-11 2l-1-3z" />
  <path
    fill="#F4CBA4"
    d="m809 749-2-6c12-3 18-12 23-22l8-18a23 23 0 0 1 11 23l-1 5v3c-5 17-16 28-29 36l-9-17-1-4z"
  />
  <path
    fill="#F4CBA4"
    d="m849 736 4 1c3 5 4 11 3 17-2 12-8 22-17 31l-7 3-3-1c4 0 4-3 4-5l2-6c3-3 2-5 0-7l-4-3c9-9 15-18 18-30z"
  />
  <path
    fill="#482B08"
    d="M849 736c-3 12-9 21-18 30l-12 8 1 6-3-2-9-1-2-2 1-2 9 5c-2-7 1-13-7-16l1-9 9 17c13-8 24-19 29-36l1 2z"
  />
  <path
    fill="#6E4817"
    d="m808 777 9 1 3 2 1 1 5 4 1 1 2 1 3 1 1 2c-1 1-3 2-4 1-8-2-15-7-21-14z"
  />
  <path fill="#654919" d="M784 984c-1-6 3-10 6-15v1c3 5-2 9-2 13l-4 1z" />
  <path fill="#DB9C40" d="m785 1033-9 44-2 5v-3l1-12 6-31 1-3 1 3 2-3z" />
  <path
    fill="#422908"
    d="m780 1036-5 31-1 12h-1a386 386 0 0 1 2-23l4-24 1 4z"
  />
  <path fill="#604215" d="m776 1002 6-17c0 6 1 13-6 17z" />
  <path
    fill="#F4CBA4"
    d="m776 1014-1-3 1 3zm2 12v-1h1l-1 1zm26-384c6 3 8 8 9 14 1 18-2 35-15 48l-2 4-2 3c12-5 21-25 21-48 7-2 17 4 20 13 4 11 3 21-1 32-5 12-12 22-23 30-4 3-5 3-8-2l-7-15-1-2-4-11-1-1-1-3v-1l-4-13c-3-5-5-6-10-3v-5l-1-1v-1l3-11c3-4 3-9 0-12l-6 18-4-10-3-1-1-2v-3l-2-5 2-4c10-12 22-16 37-9l4 1z"
  />
  <path
    fill="#726429"
    d="m810 753-1 9c0-5-3 0-4-2l-5 6-2-2-2-1-6-8-10-23c-2-5-4-10 2-13l1-4 7-7 5 11 1 2 13 28v1l1 3z"
  />
  <path
    fill="#766E2E"
    d="m731 634 3-20 2-1a839 839 0 0 1 14 31v-2h-1l1 2-2 8v4l1 1 6-4v11c-5-2-5 3-7 5l-7-10-1-2c-2-6-6-12-5-18l-2-4-2-1z"
  />
  <path
    fill="#6E6028"
    d="M750 644h2l9 10 2 5v3l2 3 5 12 1 10-8 4c-2 3-4 2-5-1l-9-15-1-6c2-2 2-7 7-5v-11l-6 4-1-1v-4l2-8z"
  />
  <path fill="#422908" d="m731 634 2 1h-5v-2l3 1z" />
  <path fill="#F9E485" d="m515 356 4 2h-1l-3-2zm-4-3 4 2-4-2z" />
  <path
    fill="#FCE788"
    d="m526 366 3 4-3-4zm5 8 2 4-2-1v-3zm-2-3 1 1-1-1zm-11-13h1v1l-1-1zm1 1 1 1-1-1zm1 1 1 1-1-1zm2 2 1 1-1-1zm2 2 1 1-1-1zm1 1 1 1-1-1z"
  />
  <path fill="#674F1B" d="m171 757 7 5c-2 0-5-1-7-3v-2z" />
  <path fill="#855118" d="M762 564z" />
  <path fill="#edede7ff" d="M747 564h1-1z" />
  <path
    fill="#77511F"
    d="M622 1156c6-9 14-18 19-28 8-13 14-26 20-40s10-29 15-43l14-49-3 18 1 4 1 2c-2 0-4 0-4 3l-12 40c-9 25-19 49-33 72-4 7-10 14-16 21h-2z"
  />
  <path fill="#edede7ff" d="M508 294v2-2z" />
  <path
    fill="#E19F42"
    d="m825 161-19 1c6-5 12-5 19-1zm-20 1-5 5 5-5zm-6 5-2 4 2-4zm30-4-3-1 3 1zm68-1h-23c7-5 15-5 23 0zm-27 2c-1 4-4 8-6 11h-2l4-8 2-2 2-1zm4-2-3 2 3-2zm26 2-2-1 2 1zm6 8-1-2 1 2zm-1-2-1-1 1 1zm-7-7-1-1 1 1zm6 5-1-1 1 1z"
  />
  <path
    fill="#482B08"
    d="M740 560a4005 4005 0 0 1 8-62l1-11-1-3 1-2-1-5v-5h2v1l2 3a156 156 0 0 0 0 13l-3 25-2 16a988 988 0 0 0-7 30z"
  />
  <path fill="#edede7ff" d="M742 561a529 529 0 0 1 4-10l-1 4-1 6h-2z" />
  <path
    fill="#8D7E33"
    d="m658 974 2-1c9-6 18-9 29-11l-4 11-16 32c-2 4-6 7-10 11l-5-5-10-1c-2-1-5-1-6-3-6-5-19-7-26-3l-1 1-1 1-1 1-3-1-1-9 8-30-6-3-3-4-1-1-1-6-3-10v-21l2-8 2-3c3 1 8-5 7-9v-1l2-4 11-18 6-11 2 2-1 19 1 10v12l-1 6 3 2c-1 9-5 16-2 24v1l1 1c4 3 6 0 9-3 12-13 16-30 19-47l4-11 6-9 2 5c2-7 7-11 11-16l2 3v1l-5 20 2 1 8-17h3l3 5v2c-6 3-7 8-9 13l1 6-4 10-16 21-4 6-6 6h-1l-22 36-1 1-3 3-6 8c4-1 7-3 7-8l2-3 1-1 7-4 9-3 7 4m-44-8 1-1-1 1z"
  />
  <path
    fill="#E16323"
    d="m636 740 2 2 1 18 2-5 1-13 11-8c3-2 7-2 11 0l11 2 23 2v4l-5 2-14 9c-9 5-17 10-23 19l-3 2c-9 4-15 13-25 15-6-3-12-18-10-25 1-1-1-3-1-5 1-7-1-12-10-11l6-6c7-5 15-7 23-2m1 8zm51 270-1-4 3-18 6-34 2-4 4-23c6 8 11 15 13 23l-1 8-7 12-8-1 1 1c4 1 7 1 9 6 2 4 6 5 11 4l5 1 5-1h2l5 5c7 10 4 21-1 31l-6 5-10 1c-7-11-8-23-10-37l-3 11-1 1-4 6-2 1v1l-1 1h-1v2h-2v-1l-2 1-6 2zm-76-14c7-4 20-2 26 3 1 2 4 2 6 3l10 1 5 5v1l-1 1-3 2-3 2-1 1h-1c-8 1-13-1-19-6l-7-6h-1l4 13-12 5-13 4-6 1-17-7-4-1-7-14c-2-4 2-13 7-16l12 7 16 7c2 1 6 1 6-3l1-1 1-1 1-1m-38 5c-1 6 6 5 7 10 3-5 1-8-1-12l-4-4-2 6z"
  />
  <path
    fill="#8D7E33"
    d="m713 1152-19-2-10-8-5-2-5-12-1-2-1-2 1-5 7 5 14 2c7 2 13 2 16-6h5c8-3 15-7 21-14l3 1 1 2-4 10-7 14-9 13-3 1-4 5z"
  />
  <path
    fill="#E06624"
    d="m485 997 16 6 4 7-6 2-21-4c-4 0-9 2-13 4h-4c-2-1-4-2-5-1l-25 6-18 1c-6 1-13 1-15-7l-2-4-1-2h4c9 4 17 4 26 0l23-7 27-2 10 1z"
  />
  <path
    fill="#8C7C32"
    d="m555 1140 8-2 12-2 3 2 11-2 3 2-1 3c-4 2-7 5-12 5l-24 1-1-2-21 2h-3l-8-3 1-4c10-10 23-15 38-18l33-7 1 2-9 8-12 7-11 1-18 5-6 3h7l9-1z"
  />
  <path
    fill="#8D7E33"
    d="m559 1093 3 4 8 3c-2 5-5 8-11 8-18 1-38-12-43-32l-3-16 4-3c4-2 6-3 8 1l1 4 7 17 1 7 6 4c6 3 12 5 19 3z"
  />
  <path
    fill="#4D2C0B"
    d="M512 553c3 4 7 6 12 6l71 2v-17l-4-33 3-9v4l2 18 1 51c0 15-1 29 3 43l11 34c5 18 3 36-3 54l-27 82-3 7-1-2 14-39 12-33c4-17 10-34 8-52l-5-25c-5-15-11-29-11-45v-30c0-6 0-6-7-6h-40l-19-1c-7-1-14 0-18-8l1-1z"
  />
  <path
    fill="#F4CBA4"
    d="M559 1093c-7 2-13 0-19-3l-6-4 22-39 10 10v1l-6 8-15 23 1 1c5-3 7-9 11-14l11-15c7 9 6 10 1 16-4 4-6 10-9 15l-1 1z"
  />
  <path
    fill="#8D7E33"
    d="m702 1065 18-6h2c10-6 18-1 26 5 10 6 12 15 12 25l-2 17-1-1-2-7-1-9-4 2v-2c-2-5-6-5-10-3l-2-1 3-3h-4v-3l3-3c-7-6-16-8-26-7h-2c-3-3-6-2-10-1v-3z"
  />
  <path
    fill="#683E16"
    d="M713 434c-7 6-10 14-12 22l-19 72c-1 4-2 7-5 10l1-7 16-61 9-28 1-13c0-5-4-7-8-9-4-1-8 1-11 4-6 7-9 16-12 25-7 18-12 37-18 56l-6 23-2 7-2-1 9-35 16-53c2-5 4-10 0-15h3l2 6 6-13 1-2h1l1-1 1-1 1-1 3-1 9-1 2 1 2 1 3 3 4 12h1l1-8 2 8z"
  />
  <path
    fill="#DF6323"
    d="m777 896-5 6-6-2c-2 5-5 7-10 6l-9-7 6-3c0-5-2-8-6-6-3 3-5 1-8-1l-3-7c-2-3 0-3 2-3h4l3-1c7 1 6 7 8 11h2l1-10 2-1 2-1h5l2 13 10-14 3-2h3l-7 20 1 2z"
  />
  <path
    fill="#8D7E33"
    d="m745 930 3-2 6-4 12-8 1 4v16l-7 19 1 2-17 1v-3l1-20 1-3h1l-1-1-1-1zm-24-23 4 13-2 4c1 9-7 15-9 24-6-8-8-16-10-25l1-2 1-6 4-13 8-4 3 8v1z"
  />
  <path
    fill="#604215"
    d="m516 964-2-10c7 8 9 17 10 27v3h1v-2c5-6 4-13 4-20-1-15 1-30 13-42h1l-4 8c-6 7-7 16-8 25v27l10-8 27-6c-3 9-5 16-14 19l9-15c-13-1-23 4-31 14l-3 3-4 3 2 1 2-4 3-2c-1 4-1 6 3 5l14-4 5-1c-4 5-10 6-15 7h-1c-8-1-15 0-18 10l-2 1c-1-6 4-12-1-18l2-8-2-11-1-2z"
  />
  <path
    fill="#6E6028"
    d="M317 1090h12v-2l-10-9c3-3 6-2 9 0l13 6c4 1 8 2 9 4 3 3 6 2 9 1h2a385 385 0 0 1 17 14l-1 1-5-1-2 7h-6l-12-4 7-5v-2l-8-1-5-3-16-3-13-3z"
  />
  <path
    fill="#6B5420"
    d="M439 973c8 4 13 10 18 18l-2 3-1 1-8 2-2-2 1-1c1-3 0-5-3-6l-3-2v-1l-3-2-6-3-12-5c-4-2-6-1-6 4l-6 4-5-1-4-2-5-1 11-9 6-2 3 1c8-2 16 0 23 3l4 1z"
  />
  <path
    fill="#E16323"
    d="M585 942s0 1 0 0l3-4 9-11-1 16c1 6 2 12 7 16l1 1 3 4c4 6 4 12-1 17l-4-2-10-10c-5-6-6-13-6-21l-1-6z"
  />
  <path
    fill="#573710"
    d="m606 871-2 13c-4 7-12 8-20 0-2-2-5-3-9-3-7 0-12-7-8-15 3-6 3-12 3-18l1-6c2-9 2-9 11-7v-26c2-11 6-23 15-32l-2 5-8 18c-1 3-1 7 2 9l5 3v1h-4c-6-2-6-2-6 4v13c0 3 5 5 3 9h1l1-1v-1h2v1l2 9-9-7c-2-2-6-3-8-2-2 0-3 5-3 8-2 7 1 14-4 21-3 3 0 9 4 10 4 2 7 3 9-3l1-1 1 8c4 2 8 5 13 5 4 1 6-5 7-9v-4l2-2z"
  />
  <path
    fill="#5E380F"
    d="M704 923c2 9 4 17 10 25 2-9 10-15 9-24l2-4 1 6 7-3 5-2v2h-3c-5 6-11 11-14 17-4 6-6 13-4 20l2 3 15 4-2 6h-2c-4-3-7-7-11-7-3 0-7 4-8 8s0 7 3 9l6 4v1c-5 1-9 0-11-4-2-5-5-5-9-6l-1-1 8 1 7-12 1-8c-2-8-7-15-13-23l-4 23v-9l4-34 2 8z"
  />
  <path
    fill="#604215"
    d="M560 1092c3-5 5-11 9-15 5-6 6-7-1-16l-11 15c-4 5-6 11-11 14l-1-1 15-23 6-7 7-2c-2-9-8-14-15-14l-1-1c-9-3-17-4-25-1l-10 3 1-2 6-2c9-4 19-3 28-1 14 4 23 13 27 27v18h-2v-2c-1-9 1-18-8-24v6c4 3 3 8 3 12l-3-2-14 18z"
  />
  <path
    fill="#6B5420"
    d="m415 1111-4-5 8-12c2 4 4 7 9 7l10 1 11 6 3 3 2 1 1 1 9 4 1 1h2l2 2-4 2v1l-4-1c-5-4-10-6-16-5l-6-3c-7-3-14-5-22-3h-2z"
  />
  <path
    fill="#573710"
    d="M738 924v-2l7 7 1 2v1l-1 3-1 20v3l17-1 2 2 2 2c7 3 10 10 7 17-5 10-14 15-25 17l-5-1h-1c4 12 2 23-4 33-4 6-12 8-17 3l10-1 6-5c5-10 8-21 1-32h1c11 2 21 0 29-9 3-4 4-16 0-18-8-3-15-6-24-3l-5 1c5-7 6-14 6-22 0-6 0-13-6-17z"
  />
  <path
    fill="#604215"
    d="M656 772c6-9 14-14 23-19l14-9 4-2-22 16c-8 6-8 8 1 13l26 13 2 2-2 2-12 3 7 14 4 15-6-8-1-9c-3-5-3-10-9-12l15-5-16-7-13-6c-4-3-8-6-13-1h-2z"
  />
  <path
    fill="#654919"
    d="m370 1111 2-7 5 1 1-1-5-5c4-1 3-3 2-6-3-10-20-15-31-14l4 3 8 5-9-3-5-3-11-8 1-1 9 1 17 4c5 2 11 4 15 7 6 4 9 11 8 17l17 9-1 1-7-2c-7-2-13-2-20 2m-28-35h-1v2c1-1 2-1 1-2z"
  />
  <path
    fill="#8C7E35"
    d="M426 1063v1l-1 2-2 2-5 2 2 2c-4 4-8 9-15 9 0-7 0-13 6-18l7-5 1-1 6-8-1-2 2-2 8-4c0 6-5 8-8 12v1l1-1h2l-3 10z"
  />
  <path
    fill="#6B5420"
    d="M395 1005v3l6 14-1 1c-4 1-6-1-8-4l-3-2c-3-4-5-9-4-14 2-5-1-7-4-10l-17-14 6-1 7 2c-4 0-2 3-1 3l14 12 10-4v3l-10 6 5 5z"
  />
  <path
    fill="#80702E"
    d="M755 1022c2-4 6-4 10 1 4 7 4 15 3 23l-1 7-6-8c1-5-4-5-6-7-4-3-5-6-3-10l3-5 3-1h-3z"
  />
  <path
    fill="#674F1B"
    d="M627 1076c4-4 8-9 13-12l17-10a54 54 0 0 1-29 44l2-4 8-7 2-5c6-1 7-6 9-9l6-14c-14 7-25 15-28 30h-2l2-13z"
  />
  <path
    fill="#E36C28"
    d="m594 812-5-3c-3-2-3-6-2-9l8-18 2-5 1-6 1 4c1 5 0 10 5 13v1l-2 8-4 5-4 10z"
  />
  <path
    fill="#422908"
    d="m713 741 2-29a647 647 0 0 1 4-32l-1 12-2 24v14h1l2-4 8-26 10-29 1 1a5949 5949 0 0 1-22 65l-3 4z"
  />
  <path
    fill="#674F1B"
    d="m523 1140-1 4 8 2-3 1 7 4-14-2 6 8c10 10 22 12 35 14 2 2 1 4-1 4l-7-2-2-1c-14 0-24-6-32-20-2-4-6-5-10-8v-2l14-2z"
  />
  <path fill="#E06624" d="m658 941 6-6a65 65 0 0 1-3 26l-10 9-9 3 16-32z" />
  <path
    fill="#604215"
    d="m431 1017 25-6c1-1 3 0 4 1 2 12 5 22 12 32 0-8 12-29 16-30l-12 25-1 7 1 5h-2l-3-3-10-16-2-12-4-6h-1a638 638 0 0 0-8 0l-15 4v-1z"
  />
  <path
    fill="#654919"
    d="M419 1094c14-17 41-25 61-13 10 5 18 12 24 22l-4-2h-1l-1-1-1-2-2-2-2-2-1-1-1-1-1-1-1-1-1-1-1-1-1-1c-10-6-21-11-33-8h-4l-16 7-14 8z"
  />
  <path
    fill="#77511F"
    d="m654 1152-3-3c5 0 10-1 10-9l15 14 11-1 1 1-11 6-3 2-3-1 1 4h-1l-3-6-3 2c-2-3-4-7-7-9h-4z"
  />
  <path
    fill="#654919"
    d="M543 920h-1l19-26v22c0 9 0 19-2 27s-8 15-11 23h-3l2-4 3-6c6-10 9-20 8-32v-20l-15 16z"
  />
  <path
    fill="#8C7E35"
    d="M627 1076a1274 1274 0 0 1-5 18v-4l-3 3h-1l-2-13-1-5 1-13 4-4 7 17v1z"
  />
  <path
    fill="#654919"
    d="m338 1129 9-5 35-9c4-1 8-2 11 1 2 2 5 1 6 2l-14 10-1-2 3-8-37 8-10 3h-2z"
  />
  <path
    fill="#604215"
    d="m664 834-25 14c-6 3-13 4-20 6l-6 6-5 7v-1l7-14-4-2c12-7 22-13 31-22l2 1v1l-4 4-15 11c-3 1-4 4-6 6l1 1c15-4 30-11 44-19v1z"
  />
  <path
    fill="#7F6126"
    d="m523 1042-1 2-4 2-3-2 3-2h-1l-2-10c-4-8-8-16-16-20l6-2 6 4 6 6 6 16v6z"
  />
  <path
    fill="#5E380F"
    d="M603 497c9 1 13 4 16 16h2l1 3-8 48-2 13-2-1 2-18 6-35c1-8-4-22-14-23l-1-3z"
  />
  <path
    fill="#6E4817"
    d="M733 468c-7 8-10 18-12 28l-6 22-4 19-4 11-1-1 1-5 14-58 7-15 5-1z"
  />
  <path
    fill="#AF913C"
    d="m547 962-2 4-4 6-10 8v-27c1-9 2-18 8-25l-6 21c-1 4-3 9 2 12l4-7c-2 5 2 10-3 14l1 2 2-2 6-7 2 1m-12 10v-1 1z"
  />
  <path
    fill="#604215"
    d="m418 1058-7 5c-6 5-6 11-6 18v2c-2 8 0 15 3 23h-1l-6-9c-1-1 1-3 1-5v-13c0-10 2-20 6-29h1l-2 8 1 3 3-1 8-8 2-4h1l2-1 1 2-6 8h-2l1 1m-12 5z"
  />
  <path
    fill="#573710"
    d="m602 797 2-8c6 10 8 20 6 31v16l16-9v2l-30 23-1-3c6-5 12-9 12-18v-3c4-8 2-17 2-25l-4-7-1 1h-2z"
  />
  <path
    fill="#7F6126"
    d="m393 1073 4 12c-3-6-10-6-14-10l-6-5-4-5c0-5 3-5 6-5l7-1 1 4c2 4 1 8 6 10z"
  />
  <path
    fill="#683E16"
    d="M636 740c-8-5-16-3-23 2l-6 6c9-1 11 4 10 11 0 2 2 4 1 5-2 7 4 22 10 25v2c-9-4-12-8-12-19l-1-20-6-1-5-2c0-2 1-4 3-5l16-8 7-1 6 5z"
  />
  <path
    fill="#8B712D"
    d="m419 1094 14-8 16-7-4 4-4 2-3 4c-4 2-6 4-5 9 2-1 5-1 5 3h-10c-5 0-7-3-9-7z"
  />
  <path
    fill="#604215"
    d="M628 791v-2c10-2 16-11 25-15l3-2-22 19 2 2 38-4 6 3v2c-8-4-16-3-24-2l-13 3c-5 1-10-1-15-4zm127 307 2 7 1 1c-3 9-6 18-14 24l-11 11-20 11 5-5 2-1c9-3 15-10 21-16l1-1 1-2 1-1 2-2 2-4 1-1 1-2 1-2 1-3 2-4 1-10z"
  />
  <path fill="#4D2C0B" d="m622 516-1-3 10-40h-42l4-1h35l5-2 1 3-12 43z" />
  <path
    fill="#6A4517"
    d="m358 1049-11-21 1-4 3 1 27 18c3 2 5 6 7 9v1l-6-5-27-19v1l6 19z"
  />
  <path
    fill="#674316"
    d="M474 1051h2c4 1 7 0 9-3l17-24 3-3-2 6-13 17-3 8 3 2c-3 1-8 0-9 6a570 570 0 0 1 9 3l-15-2v-2h3l1-3-5-5z"
  />
  <path fill="#8C7C32" d="M561 1171c-13-2-25-4-35-14l3-2 24 10 8 6z" />
  <path
    fill="#573C11"
    d="M767 936v-1l4-5 10-11c1-2 3-6 7-2l-10 24-2 3-1 1h-2l3-8 2-1 6-13-2-1c-5 7-10 14-13 22l-3-1 2-4-1-3m17-15-1-1 1 1z"
  />
  <path fill="#604215" d="m713 741 3-4 2 2-3 19-3 44-1 4h-1l3-52v-13z" />
  <path
    fill="#654919"
    d="m352 1107 12 3c-13 2-26-1-38-6v-2l13-5 1 2-8 3a151 151 0 0 0 10 3l3 1 5 1h2z"
  />
  <path
    fill="#604215"
    d="M575 996c-5 3-9 12-7 16l7 14-9-9-1-8c-5 1-5 3-4 6l1 3-9-5 3-2c4-3 10-3 11-11 0-3 4-6 7-9l2 1v3l-1 1z"
  />
  <path
    fill="#726429"
    d="m616 1081 2 12h1l3-3v4a358 358 0 0 0 5-5l3 5-3 5-7 7h-1l-3-11-4-10c1-2 0-5 4-4m2 16 1-1-1 1z"
  />
  <path
    fill="#654919"
    d="M475 1059v2c-6 0-9-3-12-8-7-9-11-20-14-31l-2-7 4-1c-1 3-1 5 2 7l2 4c-5 5 0 8 2 11l8 15c2 5 5 7 10 8z"
  />
  <path
    fill="#7F6126"
    d="m672 1164-1-3 4 1 2 1h3l5-1h7v1a211 211 0 0 0-12 12l-7-8-1-3z"
  />
  <path
    fill="#6A4517"
    d="m777 771-2-7c-1-7-5-12-9-18-2-3 0-8 2-11l8-12 1 6c-2-1-3 0-5 3-3 6-4 11 0 18 4 6 5 14 6 21h-1z"
  />
  <path
    fill="#604215"
    d="M702 1065v3l-7 4c-6 5-13 9-17 17l-6 8-2-1c6-15 17-24 32-31z"
  />
  <path
    fill="#6E4817"
    d="m672 880-2-5-5 9 4-20 4 9 11-18 1 12-2-3c-4 5-9 9-11 16z"
  />
  <path
    fill="#51360D"
    d="m500 1101 3 2c6 11 8 22 6 34v7c-3-1-3 2-4 4l-1 1-2-1v-3c6-10 6-22 2-33a154 154 0 0 0-4-11z"
  />
  <path
    fill="#654919"
    d="m755 1023-3 5c-2 4-1 7 3 10 2 2 7 2 6 7-5-5-6 2-8 4-8-7-7-22 2-26z"
  />
  <path
    fill="#674316"
    d="m759 697-17 13c-8 5-13 12-15 20l-3 4 2-8c3-8 7-15 15-19 4-1 6-4 10-6l7-5 1 1z"
  />
  <path
    fill="#604215"
    d="M502 1149h2l-9 12-4 5-2 1c-6 3-11 6-18 5v-2l7-3 8-3 1-1 14-13 1-1z"
  />
  <path
    fill="#49340E"
    d="m602 979 4 2c5-5 5-11 1-17l6 3-8 29a145 145 0 0 1-15-8h-1v-1l14 4-1-11v-1z"
  />
  <path
    fill="#573710"
    d="M654 431c-9 10-11 23-18 35l-2-1 3-8 1-1v-3l2-5 4-9a193 193 0 0 0 7-9h1l2 1z"
  />
  <path
    fill="#674F1B"
    d="M773 945h2l-12 14-2-2-1-2 7-19 1 3-2 4 3 1v2l-3 4-1 2 1 1 2-3 4-5h1z"
  />
  <path
    fill="#573C11"
    d="M431 1017v1c-8 5-16 3-24 3l-5 1c-3-5-5-9-6-14l2 3c2 8 9 8 15 7l18-1z"
  />
  <path fill="#4D2F0B" d="m719 679-1-2 4-18 5-24h6l-3 5-11 39z" />
  <path
    fill="#674F1B"
    d="m771 930-4 5v-15l-1-4-12 8-6 4c4-8 11-11 19-14 3 3 3 7 3 11l1 5z"
  />
  <path fill="#A08A36" d="M680 794v-2l5-1c6 2 6 7 9 12v9l-1-1-3-4-2-2-8-11z" />
  <path
    fill="#726429"
    d="M577 1077c0-5 1-10-3-13v-6c9 6 7 15 8 24l-4-2-1-2v-1z"
  />
  <path
    fill="#49340E"
    d="M337 1129h3c15 6 30 8 44-2l1 1c-8 7-18 9-28 7l-22-4v-2h2z"
  />
  <path fill="#77511F" d="m708 1036-14 13-2-1-1-14 2-3 1 12 4-2 9-6 1 1z" />
  <path fill="#573710" d="m707 1004 3-11c2 14 3 26 10 37l-6-3-1-1-4-20-2-2z" />
  <path fill="#6E6028" d="m519 977-2 8v-1l-5-4-4-8h6l1-5 4 10z" />
  <path fill="#674F1B" d="m553 1165-24-10 2-2 3-2c8 2 13 8 19 14z" />
  <path fill="#573C11" d="M773 808c5-11 4-23 5-35 4 11 1 22-2 33l-3 2z" />
  <path
    fill="#604215"
    d="M616 1080c-4 0-3 3-4 5-2-10-2-19 3-29h1v6a183 183 0 0 0 0 18z"
  />
  <path fill="#573710" d="m703 906 3-40 2-1-1 23-1 4 1 5v1l-1 1v1l-3 6z" />
  <path
    fill="#653B0E"
    d="m627 1024-4-13h1l7 6c6 5 11 7 19 6-7 4-13 1-20-5l-2 6h-1z"
  />
  <path fill="#674F1B" d="M616 1056h-1l4-8c5 9 8 17 8 26l-7-16c0-4-3-2-4-2z" />
  <path fill="#6A4517" d="m373 1065 4 5 6 5c-13-4-20-14-25-25l1-1 7 11 7 5z" />
  <path fill="#8C7E35" d="m421 1048-2 4-8 8-3 1-1-3 2-8 12-2z" />
  <path
    fill="#604215"
    d="m777 729-1-6 6-9 1 1-1 4c-6 3-4 8-2 13l10 23-13-26z"
  />
  <path fill="#7F6126" d="M739 889c3 2 5 4 8 1 4-2 6 1 6 6l-6 3-9-10h1z" />
  <path
    fill="#674F1B"
    d="M426 1053c3-4 8-6 8-12l2-1 1 2a471 471 0 0 1-8 11h-3z"
  />
  <path fill="#6B5420" d="M664 834v-1l3-7 4-2v-1h-6v-2h12l1 1-14 12z" />
  <path
    fill="#573710"
    d="m455 994 2-3c1 3 3 3 6 3l22 3-10-1-28 2-1-1 8-2 1-1z"
  />
  <path
    fill="#53300D"
    d="m734 468-6 1 2-11 1-1h-1l1-7h1l1 8c0 2-1 5 1 7v-1l1-1h1l4 1 3 1-1 1h-3l-5 2z"
  />
  <path fill="#573710" d="m759 697-1-1-9-21 9 15c1 3 3 4 5 1l8-4v2l-12 8z" />
  <path fill="#604215" d="m690 872-8 17-2-1 5-20 3 6 2-2z" />
  <path fill="#4D2C0B" d="M698 738a495 495 0 0 1-33-4c10-3 21 1 31 2l2 2z" />
  <path fill="#674316" d="m597 927-9 11-3 4a446 446 0 0 1 16-28l-2 8-2 5z" />
  <path
    fill="#422908"
    d="M771 689v-2h4c5-3 7-2 10 3l4 13-2 1-1-4c-3-10-3-11-15-11z"
  />
  <path
    fill="#6E4817"
    d="m798 764 2 2 5-6c1 2 4-3 4 2h-1l-4 3c-3 4 2 5 3 8l-1 2-11-12h1l2 1z"
  />
  <path
    fill="#51360D"
    d="m377 980-7-2c4-3 10-1 15 0l7 1 5 1 3 2h-8l-15-2zm330-82v-1l1-5 1-3 1 1 1 2-1 10-4 13-1 6-1-6 2-15v-1l1-1z"
  />
  <path fill="#341E06" d="m713 434-2-8 1-22 2 1v26l5 1v2l-5-1-1 1z" />
  <path
    fill="#5E380F"
    d="M719 434v-2c10 1 13 8 15 16l-2 2h-1c-1-7-4-13-12-16z"
  />
  <path fill="#573710" d="M710 806h1l-1 35h-2l2-35z" />
  <path fill="#49340E" d="m670 1096 2 1v3l-1 3-2 18h-1c-2-8-2-16 2-25z" />
  <path
    fill="#8C7E35"
    d="m342 1082 5 2 9 3 3 3c-3 1-6 2-9-1-1-2-5-3-9-4l1-3z"
  />
  <path fill="#573710" d="m777 876-10 14-2-13 3 4 9-5z" />
  <path fill="#604215" d="M654 1152h4c3 2 5 6 7 9l-1 3-2-1-8-11z" />
  <path
    fill="#49340E"
    d="m585 943 1 5c0 8 1 15 6 21h-1c-2-4-6-8-7-13-1-4 0-9 1-13z"
  />
  <path fill="#6B5420" d="m688 898-1-6c2-5 3-10 9-13l-8 19z" />
  <path fill="#A66924" d="m710 902 1-10h3c4 0 4 3 5 6l-9 4z" />
  <path fill="#49340E" d="m340 1099-1-2-9-4 16 3 4 3h-10z" />
  <path fill="#51360D" d="m439 973-4-1c-7-3-15-5-23-3l-3-1 13-2 17 7z" />
  <path fill="#654919" d="M668 1121h2l2 3 1 2 1 2 5 12c-6-5-9-11-11-19z" />
  <path fill="#6A4517" d="M627 1024h1l-1 3c-8 3-16 8-25 6l13-4 12-5z" />
  <path fill="#573710" d="m756 879-1 10h-2c-2-4-1-10-8-11 1-4 3-1 5-1l6 2z" />
  <path fill="#422908" d="m777 896-1-2 7-20 1 6-7 16z" />
  <path fill="#674F1B" d="m533 1147 21-2 1 2h-22z" />
  <path fill="#5E380F" d="M490 1063v-1h7l20-5-4 3-23 3z" />
  <path
    fill="#53300D"
    d="M626 829v-2l13-4c2 0 3 2 5 4v2l-2-1c-6-4-11-1-16 1z"
  />
  <path fill="#6E4817" d="m517 1020-6-6-5-4-5-6c7 3 12 8 16 16z" />
  <path fill="#573C11" d="m651 970 9-9-2 13-7-4z" />
  <path fill="#654919" d="m679 1140 5 2 10 8c-7 0-12-4-15-10z" />
  <path fill="#51360D" d="m693 1031-2 3v-11l-2-3-1-2 7-2h1v1c-5 4-2 10-3 14z" />
  <path
    fill="#482B08"
    d="m654 431-2-1 2-2c5-2 10-3 15-1l2 2 1 2h-3l-1-2h-1l-13 2z"
  />
  <path fill="#51360D" d="M756 906c5 1 8-1 10-6l5 2-12 6-3-2z" />
  <path
    fill="#573710"
    d="m748 669 1 6-7-11-2 2 1-4v-3l7 10zM644 829v-2a297 297 0 0 1 21-4l-21 7v-1z"
  />
  <path fill="#674316" d="m696 877-3-5v-1l1-1 1-2v-2h-1l3-6 1 1-2 16z" />
  <path fill="#7F6126" d="m706 900-2 15 1 6-1 2-2-9 1-8 3-6z" />
  <path fill="#604215" d="m575 1026 4 1 17 7c-8 0-15-2-21-8z" />
  <path fill="#422908" d="m642 742-1 13-2 5-1-17 3-2 1 1z" />
  <path fill="#AC7A2F" d="m562 1018-1-3c-1-3-1-5 4-6l1 7-4 2z" />
  <path fill="#49340E" d="M631 943c-3-8 1-15 2-23l1 6-3 17z" />
  <path fill="#604215" d="m389 1017 3 2c2 3 4 5 8 4-4 4-5 4-8 0l-3-6z" />
  <path fill="#6E4817" d="m773 808 3-2-9 16-1-1 7-13z" />
  <path fill="#49340E" d="M604 788c-5-3-4-8-5-13l3 2 2 11z" />
  <path fill="#6B5420" d="M609 902c2 4-3 10-6 9l6-9z" />
  <path fill="#654919" d="M392 1073c-4-2-3-6-5-10l-1-4v-2h2l4 16z" />
  <path
    fill="#573C11"
    d="M589 987v1l-13 4-2-1c4-4 9-5 15-4zm198-283h2l1 3 1 1h-1l-7 7-1-1 5-10z"
  />
  <path fill="#573710" d="M739 889h-1l-5-8c-1-4 1-5 5-2-2 0-4 0-2 3l3 7z" />
  <path fill="#6A4517" d="M591 969h1a233 233 0 0 1-1 0z" />
  <path fill="#724C16" d="m680 1175 2-3 5 6c-4 3-5 0-7-3z" />
  <path fill="#6E4817" d="m642 742-1-1c2-5 6-7 12-7l-11 8z" />
  <path fill="#F4CBA4" d="M708 841h2v10h-2v-10z" />
  <path fill="#674F1B" d="m554 1140-8 1h-7l6-3 9 2z" />
  <path
    fill="#77511F"
    d="m742 467 1-2h1a75 75 0 0 0 5 4l1 3a129 129 0 0 1-4 0l-4-5z"
  />
  <path fill="#4D2C0B" d="m603 497 1 2c-4-1-6 3-10 3 2-3 4-5 9-5z" />
  <path fill="#F4CBA4" d="M708 865h-2l2-9h1l-1 9z" />
  <path fill="#604215" d="M680 794zm14 72h1v2l-1 2-1 1v1h-3c-1-3 1-4 4-6z" />
  <path fill="#77511F" d="M713 1029a194 194 0 0 1-6 6l5-7 1 1z" />
  <path fill="#604215" d="M796 763h-1l-5-8 6 8z" />
  <path fill="#6E6028" d="m420 1072-2-2 5-2-3 4z" />
  <path fill="#573710" d="m634 473-1-3 3-3-2 6zm131 404h-5 5z" />
  <path fill="#6A4517" d="M388 1057h-2l-1-1v-3l3 4z" />
  <path fill="#F4CBA4" d="m772 695-2-2 1-1 1 3z" />
  <path fill="#4D2C0B" d="m636 467-3 3v-1l1-4 2 1v1z" />
  <path fill="#573710" d="m738 672-1-1 3-5-2 6zm42 202-3 2 3-2z" />
  <path fill="#F4CBA4" d="m709 889-1 3h-1a400 400 0 0 1 2-3z" />
  <path fill="#8C7E35" d="m424 1047-2 1 2-2v1z" />
  <path
    fill="#F4CBA4"
    d="M762 752h2l-1 1-1-1zm14 192 2-3-2 3zm-62-53h-3l-1-1 4 1z"
  />
  <path fill="#604215" d="m608 867-1 3h-1l2-3z" />
  <path fill="#F4CBA4" d="M677 1162h-2l2-2v2z" />
  <path fill="#6E4817" d="M746 472h2v2l-2-2z" />
  <path fill="#77511F" d="m713 1026 1 1-1 1h-1l1-2z" />
  <path fill="#F4CBA4" d="M771 706h1l-1 1v-1z" />
  <path fill="#6E4817" d="M748 498v2-2z" />
  <path fill="#F4CBA4" d="M770 704v-2 2z" />
  <path fill="#654919" d="M755 1022h3l-3 1v-1z" />
  <path fill="#F4CBA4" d="m672 1165 1 2-2-1 1-1z" />
  <path fill="#604215" d="M424 1047v-1l2-1-2 2z" />
  <path fill="#8C7E35" d="m409 1049-1 1v-3l1 2zm-4 34v-2h1l-1 2z" />
  <path fill="#F4CBA4" d="M760 823v1h-1l1-1z" />
  <path fill="#6E4817" d="M765 823h-2l1-2 1 2z" />
  <path fill="#7F6126" d="m398 1089-1-3h1v3z" />
  <path fill="#5E380F" d="M730 457h1l-1 1v-1z" />
  <path fill="#F4CBA4" d="M769 1055h1-1z" />
  <path fill="#726429" d="M619 1106z" />
  <path fill="#F4CBA4" d="M771 700c0 1 0 0 0 0zm-91 463h-1 1z" />
  <path fill="#683E16" d="M667 429h1-1z" />
  <path fill="#F4CBA4" d="M765 756c-1 0 0 0 0 0z" />
  <path fill="#6A4517" d="M766 747c-1 0 0 0 0 0z" />
  <path fill="#5E380F" d="M594 506v-1 1z" />
  <path fill="#604215" d="M517 984z" />
  <path fill="#6E4817" d="M739 466h1-1z" />
  <path fill="#8D7E33" d="M659 1017v-1 1z" />
  <path fill="#F4CBA4" d="M742 879h-1 1zm33 177-1 1 1-1z" />
  <path fill="#573710" d="M606 870h1l-1 1v-1z" />
  <path
    fill="#4D2F0B"
    d="m512 553-1 1-3-4c-4 1-7 3-7 8l-3 12-1-1v-5l2-6v-4a274 274 0 0 0 1-8v6c1-6 6-1 9-4v-5l3 2v8z"
  />
  <path fill="#4D2C0B" d="m497 569 1 1v10h-1l-1-3-2-1 3-7z" />
  <path fill="#4D2F0B" d="M498 578v-4 4z" />
  <path fill="#674F1B" d="M178 763z" />
  <path fill="#604215" d="M279 826zm-27-14z" />
  <path fill="#6B5420" d="M197 779z" />
  <path fill="#604215" d="M241 806zm27 14z" />
  <path
    fill="#AC7A2F"
    d="M460 1170c-9-1-18-4-26-9-9-4-15-11-19-20 5 5 7 5 15 2-2-3-7-4-4-8l8-2a157 157 0 0 0 7 6l3 2c0 5 4 4 6 4l2 2 2 2 2 1c1 6 9 13 15 12v6l-11 2m-27-26s0 1 0 0m-6-7s0-1 0 0z"
  />
  <path
    fill="#9C712A"
    d="m434 1133-8 2c-3 4 2 5 4 8-8 3-10 3-15-2l1-9 5 2 1 4 2-1-3-3-2-3-5-5-4 1v-13l5-3h2l7 1 9 4-1 5-5 1c7 1 9 5 10 10l-3 1z"
  />
  <path fill="#AC7A2F" d="m421 1134-5-2-1 9-5-14 4-1 5 5 2 3z" />
  <path fill="#E19F42" d="M461 1170a232 232 0 0 1 17-3l-7 3h-10z" />
  <path
    fill="#515544"
    d="m187 1035 10 6-5 7-9-15 4 2zm46 45c-3 3-5 2-7 0-3-2-6-3-4-8l11 8zm6-101 2-5c2-1 4 1 5 2l1 1 1 8-5 2c-3-2-6-4-4-8z"
  />
  <path fill="#5B5D49" d="m404 913-6 2 3-10h1l2 8z" />
  <path
    fill="#515544"
    d="M209 1090c-1-3 1-4 3-2l13 7c-2 8-4 9-9 4-3-2-4-5-7-9zm103-144 3 8-2 3c-4 2-6-1-8-3l-1-7c2-3 5-2 8-1zm179 0-2 6-6-3-1-6 4-4 4 3 1 4zm-41-34-1-1 3-7c4-1 5 3 5 6l-2 5-5-3z"
  />
  <path fill="#C28A35" d="m509 966 2 1v1l-2-2zm7-2 1 2-1-2z" />
  <path fill="#6E6028" d="M511 968v-1 1z" />
  <path fill="#515544" d="m429 951-1-5 9-1-3 5-5 1z" />
  <path fill="#80702E" d="m429 951 5-1 2 4-7-2v-1z" />
  <path
    fill="#3C2306"
    d="M119 588c2-6 2-12 5-17 5-10 17-10 24 2l10 30c-6-5-3-14-9-19-7 5-11 16-8 25l7 18v4c-13-14-14-36-2-49 2-2 2-3 0-6-3-4-6-8-11-9-4-1-6 0-8 2-4 5-6 10-6 17l-1 5-1-3z"
  />
  <path
    fill="#FCE788"
    d="m536 385 2 1c3 13 5 27 2 41l-2 3c4-15 2-30-2-45zm-1-3 1 2-1-2zm-1-2 1 2-1-2zm-1-2 1 2-1-2zm-22 86 1 1h-2l1-1zm5-4-2 2 2-2zm-2 2-1 1 1-1z"
  />
  <path
    fill="#edede7ff"
    d="m737 331 1-2 29 2c3 0 6-2 8-3l8-1c-2-6 4-14-5-19 4-3 7-4 11-1 3 2 3 5 1 8-1 2 3 5-2 5v-8l-3 11-1 10h-26c8 2 16 2 23 1 3 0 3 1 3 3a862 862 0 0 0-2 60v5h-36l-2-1-6-1h-17c-4 0-5-1-5-5l2-51-1-5v-5h32l-9-2-3-1m21 30c7-6 7-6 6-9l-15 13c-5-4-7-10-13-12l-2 1 12 14-8 7c-6 5-6 5-5 9l15-13c5 4 8 11 14 13-1-7-7-11-11-16l7-7z"
  />
  <path
    fill="#F9E485"
    d="m634 465-1 4c-2 1-3 3-5 3h-47v-10h-2l-1 9h-12l6-1c6 0 6 0 6-6a6866 6866 0 0 1 3-55l-1 48h2l1-40 1-11 2-5 39 2-11 1h-28l-1 16-2 46c0 3 1 4 4 4h30c4 0 10 1 13-1s3-7 5-11l1-1h1l-3 8zm177-132 5-1h35c4 0 5-1 5-5l1-22 1-2h1l2 6v19c0 3 1 4 5 4h11l4 2-4 3h-13c-3 0-4 1-4 4l-2 55c0 4 1 5 4 6l-6-2 2-53 1-12h14v-1l-14-1v-20l-2 10c0 3 1 8-1 10-1 2-6 1-10 1l-4-1h-31z"
  />
  <path
    fill="#3C2306"
    d="M534 326h31l3 4-2 31-33-2 1-33m9 2h-7v30h28l2-30h-23z"
  />
  <path
    fill="#855118"
    d="M811 333a3845 3845 0 0 1 35 2l-2 1h-1l-1-1h-56v17l-1-1v-3l-1-11c0-2 0-3-3-3-7 1-15 1-23-1h26l1-9 1 9h25z"
  />
  <path
    fill="#F9E485"
    d="m654 332 5-1h49c5 0 6-1 6-6l1-19 2-1 2 5v13c0 9-1 8 8 8l6 1-10 1h-6v-17h-1l-1 17h-23l-6-1h-32z"
  />
  <path
    fill="#edede7ff"
    d="m533 360 33 1 2-31-3-4h-30l2-2h29c1 0 4 3 4 5a535 535 0 0 1-4 33 1308 1308 0 0 1-33-2z"
  />
  <path
    fill="#653B0E"
    d="M579 471v-9h2v10h11l-4 1h-7l-3 59-2-3 1-19 2-36v-3z"
  />
  <path
    fill="#683E16"
    d="M649 329v6l-1 27-1 2-1-9v-21h-23v-2h24v-11l1-9 1-1v18z"
  />
  <path
    fill="#F9E485"
    d="m566 401 5-2c10 0 10 0 10-10l2-49 2-16v5l-2 55v3l-1 5v8h-13l-1 1h-2z"
  />
  <path fill="#5E380F" d="m583 384 2-55 2 3v2l-1 22a2211 2211 0 0 1-3 31v-3z" />
  <path fill="#F9E485" d="m578 532 3-59h5c-3 1-4 3-4 6l-2 50-2 3z" />
  <path fill="#A66924" d="M649 334v-2h5a4082 4082 0 0 1 15 2h-20z" />
  <path fill="#53300D" d="m583 417-1 40h-2l2-49v-1l1 10z" />
  <path fill="#855118" d="M587 334v-2h36v2h-36z" />
  <path fill="#A66924" d="M578 471v2h-32l4-2h28z" />
  <path fill="#edede7ff" d="m534 326-1 33-2-2a151 151 0 0 1 1-28l2-3z" />
  <path
    fill="#FCE788"
    d="M809 333h-23v-9l2-12a5890 5890 0 0 0 0 12c-2 8-1 8 6 8l15 1z"
  />
  <path fill="#A66924" d="m724 333 10-1c0-1 0-1 0 0l3 1h3l9 1h-26l1-1z" />
  <path fill="#855118" d="M856 401a88 88 0 0 0 8 1h16v1l-18 1h-6v-3z" />
  <path fill="#AC7A2F" d="M569 400h13v3h-14l-2-2h2l1-1z" />
  <path
    fill="#855118"
    d="M582 403v-3l1-8h1c1 3-3 7 3 8l-1 1-2 5-1 11-1-11v-3z"
  />
  <path fill="#FCE788" d="M623 332h-1l17-1c7 0 7 1 7-7l1-3v11h-24zm-77 141z" />
  <path fill="#F9E485" d="m650 329-1-18 2 3-1 15z" />
  <path fill="#edede7ff" d="M794 332c-7 0-8 0-6-8l6 8z" />
  <path fill="#F9E485" d="M880 402h-15c4-2 9-3 15 0zm-317 68-13 1 6-1h7z" />
  <path fill="#4D2C0B" d="m512 545-3-2-1-3 2-1 2 6z" />
  <path
    fill="#F9E485"
    d="m740 332-1 1h-2l-3-1 3-1 3 1zm-88 0h-3v-1l3 1zm-3-21-1 1 1-2v1zm0-1z"
  />
  <path
    fill="#EC9B10"
    d="m342 590-9 9-15 8h-1c-15 4-29 3-43-3l-3-1-3-1s1 0 0 0l-2-2-3-3-10-9-1-3-7-16c-4-15-2-30 7-43 7-6 12-13 20-17 20-12 42-13 63 0l9 7 10 21 2 1 2-1c3 1 7-2 7 3v1c-3 2-8 4-8 10l-8 28-3 6-2 2-2 3m-65-37 1-1h1l10-2h25l2 1c4 0 8 7 15 1l-13-10v-1c-9-3-18-5-28-1l-10 4h-1v1h-1l-5 3h-1l-1 1a888860 888860 0 0 1-3 6l7-1 1-1h1m62-30 1 1 13 26-3-9c-2-7-4-14-10-19l-1-1-10-8c-13-7-26-11-41-5 15-3 28-1 41 7l10 8m-4 63-11 9c-9 5-19 8-30 7-22-1-42-19-43-41v-19c-2 3-2 8-2 12-1 17 5 31 19 41 19 13 38 12 58 2l11-9c5-7 10-13 11-22l-13 20z"
  />
  <path
    fill="#6E4817"
    d="M376 632h3l2 1 6 2c10 2 18-5 27-6v-3l11-2c7 0 15 0 22 2 13 4 21 12 22 26 1 9-5 16-11 25l-4-20c0-2 0-4-4-2l-6-1-3-1v3l-7-6-6-3-1 6 4 4-8 2-6 1-3 1-2-4-2 1-3 5c-7 3-13 1-19-1-6-3-13-1-16 4l-17-5c-2-1-3-2-5 0l-1 1-11-1-3 1-1-1-1-1-4-2c-4 2-8 2-12 0l-6-1-1 2v-5c-4-1-10 4-14-3l-8 3v-4c-5 1-4 4-4 7l-3 10-1-2-2-4-4 3-3 17v2c-8-5-14-12-13-21 1-7 5-14 8-20 0-2 1-3 3-4l2-1 6-3 16-5 4-3h21l6 2 5 2h19l-2 1 10 2 2-2a143 143 0 0 1 18 1m-54-1s1 0 0 0z"
  />
  <path
    fill="#FEF5F2"
    d="M339 703s1 0 0 0l-3-1c1-5 3-9 0-14l-2 13-10-4c-5-2-7-6-8-11l-2 4-9-8-3-6v-13l48 11 22 3 25-1 20-5 9-3 3 2v1c-1 5 0 11-4 15-5 3-8 8-14 9l2-8-1-1-4 13-16 5h-5l-1 1-9 2h-11l-27-4m23-8v-8h-1l-2 14c4 1 2-3 3-6z"
  />
  <path
    fill="#EDA415"
    d="m496 569-2 7v1l-2 2-3 5-4 4-5 6-7 3c-17 9-35 10-52-1-4-3-7-6-7-11l11 9c11 7 22 8 34 4 11-5 20-10 27-19h1-1 1l1-3c5-6 9-11 7-19l1-4 3 1-1 4-1 6-1 5z"
  />
  <path
    fill="#573710"
    d="m350 674-48-11v13l3 6 9 8-1 1c-12-8-22-17-26-32l-3-2c0-3-1-6 4-7v4l8-3c4 7 10 2 14 3v5l1 3 32 8 7 3v1m-60-14c1 6 5 11 10 16 1-7-2-14 5-18l-13-1-2 3m17-1s-1 0 0 0z"
  />
  <path
    fill="#341E06"
    d="m425 594-11-9c0 5 3 8 7 11l-1 1-4-2 2 12h-2c-2-15-7-30-14-43l-1-3 3-1c2 10 6 17 12 24 11 12 24 14 39 12l2 2c-12 2-22 1-32-4z"
  />
  <path
    fill="#855118"
    d="m434 650 7 6v-3l3 1-1 7-5 10v-1h-1l-2 6-4 2c-1-3 2-7-2-8l-2-2 1-3 3-2 2-2 1-2v-9z"
  />
  <path
    fill="#573710"
    d="M416 607h2c1 7-1 13-4 19v3c-9 1-17 8-27 6l-6-2c9 3 16-2 25-5l5-3c3-5 6-11 5-18z"
  />
  <path
    fill="#341E06"
    d="M252 526c-9 13-11 28-7 43l7 16c-1-1-3-2-3-4l-8-26v-2l1-10 7-20 3 3z"
  />
  <path
    fill="#573710"
    d="M429 671c4 0 1 4 2 7l4-2c-7 10-15 19-27 23l4-13 1 1-2 8c6-1 9-6 14-9 4-4 3-10 4-15z"
  />
  <path
    fill="#53300D"
    d="m404 560-3 1-4-9c-4-7-12-12-20-12l-12 1v-1l20-1 2 1h1l1 1 3 2 9 8 2 6 1 3z"
  />
  <path
    fill="#4D2C0B"
    d="m420 597 1-1c17 11 35 10 52 1l7-3c-13 13-43 16-60 3z"
  />
  <path fill="#4D2F0B" d="m271 603 3 1c14 6 28 7 43 3l-9 4c-13 1-26 0-37-8z" />
  <path fill="#482B08" d="m358 631-2 2-10-2 2-1h-19l-5-2h21l13 3z" />
  <path fill="#573710" d="m377 707 9-2 1-1h5l16-5-12 6c-6 2-12 2-19 3v-1z" />
  <path fill="#4D2C0B" d="m349 579 8-28c-1 10-2 19-8 28z" />
  <path fill="#77511F" d="m324 697 10 4 2-13c3 5 1 9 0 14l-12-5z" />
  <path fill="#573C11" d="m340 703 25 4v1l-25-5z" />
  <path fill="#482B08" d="m297 626-4 3-16 5 12-6 8-2z" />
  <path fill="#77511F" d="m313 691 1-1 2-4c1 5 3 9 8 11l-11-6z" />
  <path fill="#5E380F" d="m318 607 15-8c-3 5-9 7-15 8z" />
  <path fill="#604215" d="m365 708 1-1h11v1h-12z" />
  <path
    fill="#573710"
    d="m376 632-7-1 5-3 2 4zm59 44 2-6h1v1l-3 5zm-56-44h-2 2z"
  />
  <path
    fill="#674316"
    d="m252 526-3-4-3 1c-3-4 2-16 11-23l5-6 6-3 5-3 3-1 25-4h1c10 1 20 1 29 7h2l7 15c1 1 0 3-1 5l-4-1a59 59 0 0 0-63 0c-8 4-13 11-20 17z"
  />
  <path
    fill="#6A4517"
    d="M468 489c6 5 12 10 14 18h-6l-9-5c-7-1-14-3-20-2-7 0-13 2-19 4h-3l-10 4c-7-3-9-7-3-12l13-12 8-1 18-1h2l1 1 14 6z"
  />
  <path
    fill="#281602"
    d="m415 508 10-4-4 3c-3 3-8 5-10 9-6 6-12 13-11 22l-3-1-4-2-3-1v-1c-11-3-22-3-32 4l-2 1-2-1-10-21 5 5 7 14 3-2 2-2 2-1c11-1 22-2 32 3l2 1c3-11 10-19 18-26z"
  />
  <path
    fill="#EC9B10"
    d="m242 543-1 9c-3-1-8 1-10-4l1-1-2 1h-1l-4-2h3l2-1h7l3-4 2 2z"
  />
  <path fill="#3C2306" d="M333 490h-2c-9-6-19-6-29-7h2l20 1 2 1 2 1 2 2 3 2z" />
  <path fill="#edede7ff" d="M395 532c-10-4-21-3-32-2l1-1c10-2 21-3 31 3z" />
  <path
    fill="#F8D466"
    d="m433 483-8 1 3-2a320 320 0 0 1 5 1zm20-1h-2v-1c7-1 12 3 17 6v2a146 146 0 0 1-15-7zm-152 1-25 4 16-5c3-1 6 0 9 1zm23 1-20-1 1-2 19 3z"
  />
  <path
    fill="#281602"
    d="M477 507h5l5 7-1 1-5-4-2-1v-1l-2-1v-1zm-142 2 4 1 5 6-9-7z"
  />
  <path fill="#6E4817" d="m240 542-3 2-2-1 5-1zm-6 1z" />
  <path fill="#C78B19" d="m230 548 2-1-1 1h-1z" />
  <path fill="#EC9B10" d="m507 540 2 3v5c-3 3-8-2-9 4v-13l7 1z" />
  <path
    fill="#EEAF17"
    d="m499 554-3-1-4-20 1-8a17731 17731 0 0 0 6 29m-4-19-1 1 1-1zm-5-16 1 2 1 2-4-1v-4l2 1z"
  />
  <path fill="#6A4517" d="M496 527v-1l1 1h-1z" />
  <path fill="#F4CBA4" d="M419 428z" />
  <path fill="#EEAF17" d="M481 511a109 109 0 0 0 7 6v1l-3 3-6-6c5 0 1-3 2-4z" />
  <path fill="#DC6525" d="M589 222v1-1z" />
  <path fill="#edede7ff" d="m937 329-2 34-2 17 1-47 3-4z" />
  <path fill="#edede7ff" d="m936 292 1 13 1 12-3 5 1-30z" />
  <path fill="#edede7ff" d="M952 289a420 420 0 0 1-14-1l14 1z" />
  <path fill="#edede7ff" d="m937 329-3 4 1-9 2 5z" />
  <path fill="#DC9533" d="M593 221z" />
  <path
    fill="#724C16"
    d="M904 539v1l2 2 2 3 6 7 1 1 1 1 2 2 5 7 1 1 1 1 1 1 1 1c1 2 5 5-1 7l-23-28c0-6-4-5-7-5-4-1-7-2-6-7l-1-5-1-2h1v1-1l-2-3-7-14-4-3-2-4v-5l5 4a562 562 0 0 0 15 24l3 1c6-1 6-1 6 5l1 7z"
  />
  <path fill="#4D2F0B" d="m895 610-1-22 3-1-2 23s1 0 0 0c0-1 0 0 0 0z" />
  <path fill="#4D2C0B" d="m900 483-2-6 1-17 2-1 2 4-3 20z" />
  <path
    fill="#FCE788"
    d="m900 483 3-20-2-4-2 1-1 17-1-15 4-4c1 2 3 3 3 5l-4 20z"
  />
  <path fill="#53300D" d="m963 534 5 2v2l-16-1v-2c3-3 7 0 11-1z" />
  <path
    fill="#482B08"
    d="m889 529 1 5c-1 5 2 6 6 7 3 0 7-1 6 5-1-1-2-3-4-3l-6-1c-5-2-6-3-4-8l1-5zm-26-43-1-8 2-1 9 15-8-9-2 3z"
  />
  <path fill="#724C16" d="m863 486 2-3 8 9 1 6-6-8-3-1-2-3z" />
  <path fill="#482B08" d="m904 539-1-7c0-6 0-6-6-5l-3-1c11-3 12-1 10 13z" />
  <path fill="#4D2C0B" d="m865 489 3 1 6 8v5l-9-14zm11 18 4 3 7 14-11-17z" />
  <path fill="#FCE788" d="M896 610z" />
  <path fill="#482B08" d="M888 518zm-14-20-1-6 6 10-5-4z" />
  <path fill="#4D2C0B" d="m874 504 2 3-2-3zm15 23h-1l-1-3 2 3z" />
  <path fill="#FCE788" d="M895 610v-1 1z" />
  <path
    fill="#edede7ff"
    d="m744 561 1-6 1-4 1-21 2-16c4-8 4-16 4-25 0 0 0 1 0 0v-10c2 3 2 3 4 2l2 5-1 42-4 33h-10z"
  />
  <path
    fill="#F9E485"
    d="M780 476h36l-4 2h-25c-4 0-5 1-5 5l-1 37c0 5-2 10-3 14l1-15 1-43z"
  />
  <path
    fill="#3C2306"
    d="m780 476-1 43-1-8 1-31v-7a654 654 0 0 1 2-16l-1 17v2z"
  />
  <path fill="#77511F" d="M779 474v6c0-2 0-4-4-4h-23l-2-3h1v1h28z" />
  <path fill="#edede7ff" d="M752 476h4l1 5c-2 1-2 1-4-2v10l-1-13z" />
  <path fill="#724C16" d="m778 511 1 9a208 208 0 0 1-1-9z" />
  <path
    fill="#5E380F"
    d="M810 448h-1l-1 2-2 2-1 1-1 1-2 2-1 1h-1l-1 1-2-1 9-11 8-7-14-14c4-2 4-2 16 11l16-14 1 2c-2 7-11 10-14 16l11 12 1 2h-3l-2-2-2-1v-1h-1l-5-5c-3-4-5-1-6 1l-1 1-1 1z"
  />
  <path
    fill="#855118"
    d="M748 402h34v-7h2v7h35v2h-33l-2 1-19-1-48-1-3 2-2-1-16-1-23-1v-1l36 1 3-1h2l30 1h4z"
  />
  <path fill="#724C16" d="M819 404v-2h27l8-1 1 3h-36z" />
  <path
    fill="#FCE788"
    d="m784 405 2-1a925 925 0 0 1-2 1zm28 41c1-2 3-5 6-1l-6 1zm6-1 5 5-5-5zm-12 7 2-2-2 2zm-4 4 2-2-2 2zm24-4 2 2-2-2zm-29 6h2-2zm27-7 2 1-2-1zm-1-1h1-1zm-13-2 1-1-1 1zm1-1 1-1-1 1zm-3 3 1-1-1 1zm-9 8 1-1-1 1zm2-1 1-1-1 1zm4-4 1-1-1 1zm-1 1 1-1-1 1z"
  />
  <path
    fill="#edede7ff"
    d="M734 448c-2-8-5-15-15-16l-5-1v-26h58c8 0 8 0 8 7l1 3-1 2-1 2-1 21 2 2-1 2-1 3-1 22c0 3-1 4-4 4h-22l-2-4-5-4c-3-3-6-4-9-2l-1 1c0 1 0 0 0 0-2-1-1-4-1-7l3-7 10-9 16 14 1-1-11-12c-2-3-3-5 0-7l10-9 2-4-1-1-16 14-13-14-2 1 12 15-10 11z"
  />
  <path fill="#683E16" d="M780 444v-2l1-25v-2l1-6h1l-2 48-1-7v-6z" />
  <path fill="#4D2C0B" d="m855 404-1-3 1-6 2-48h1l-2 53v3l-1 1z" />
  <path fill="#edede7ff" d="M854 425v-1 1z" />
  <path
    fill="#F4CBA4"
    d="m826 785-5-4-1-1-1-6 12-8 4 3c2 2 3 4 0 7l-2 6c0 2 0 5-4 5l-2-1-1-1zm-19-12c-1-3-6-4-3-8l4-3c9 3 6 9 8 16l-9-5z"
  />
  <path
    fill="#4D2F0B"
    d="M770 677a766 766 0 0 0-3-12l4 10 6-18c3 3 3 8 0 12l-3 11c-2 0-3-2-4-3z"
  />
  <path fill="#49340E" d="m770 677 4 4 1 1v5h-3l-2-10z" />
  <path fill="#482B08" d="M790 708h1l4 11-5-11z" />
  <path fill="#4D2F0B" d="M763 662v-3 3z" />
  <path fill="#422908" d="M741 659v3l-7-15-4-7 3-5 2 4c-1 6 3 12 5 18l1 2z" />
  <path fill="#6E6028" d="m750 644-1-2h1v2z" />
  <path fill="#edede7ff" d="M752 489c1 9 1 17-2 25l2-25z" />
  <path fill="#edede7ff" d="m749 469 2 4h-1v-1l-1-3z" />
  <path
    fill="#726429"
    d="m576 992 13-4h1l2 1 13 8 1 9c-5 3-12 1-16-3l-11-8-3-1v-2z"
  />
  <path
    fill="#51360D"
    d="m658 941-16 31a48 48 0 0 1-7 5l22-36h1zm-79 54 11 8c4 4 11 6 16 3l3 1c0 4-4 4-6 3l-16-7-12-7 1-1h3z"
  />
  <path fill="#49340E" d="m597 927 2-5v21l3 10 1 6c-5-4-6-10-7-16l1-16z" />
  <path fill="#6B5420" d="M632 981c0 5-3 7-7 8l6-8h1z" />
  <path fill="#51360D" d="M632 981h-1l3-3-2 3z" />
  <path fill="#FEB459" d="M630 917z" />
  <path fill="#6E4817" d="M672 880z" />
  <path fill="#422908" d="m637 748 1 1h-1v-1z" />
  <path
    fill="#80702E"
    d="m713 1026-1 2-5 7-9 6-4 2-1-12c1-4-2-10 3-14a416 416 0 0 1 2-2v-1h2v-1l2-1v-1l4-6 1-1 2 2 4 20z"
  />
  <path
    fill="#573710"
    d="M731 973h1v12l-2 3-5 1v-3c7-2 7-3 6-13zm6 19-5-4v-1l6 4-1 1z"
  />
  <path fill="#5E380F" d="M725 986v3l-5-1v-1l5-1zm7 1v1h-2l2-3v2z" />
  <path fill="#51360D" d="m702 1012-2 1 1-1h1z" />
  <path
    fill="#573710"
    d="m707 1004-1 1 1-1zm-5 8h-1l1-1v1zm-3 2h-1 1zm-1 0v1-1zm-2 1-1 1 1-1zm1 1-1 1v-1h1z"
  />
  <path fill="#6A4517" d="m574 1009 2-6 4 4c2 4 4 7 1 12-1-5-8-4-7-10z" />
  <path
    fill="#C28A35"
    d="m672 1124-2-3 1-17 2 4c-4 3 0 3 1 5 3 4 6 1 8 1l6-2 4-2 10-8 3-1c1 5 4 3 6 3l-6 7-7 7 2 1 19-15-1 4c-1 2 0 6-4 6l-1 1-3 5c-3 8-9 8-16 6l-14-2-7-5-1 5z"
  />
  <path
    fill="#D7973E"
    d="m755 1098-1 10-2 4-1 3-1 2-1 2-1 2-3 3-1 2h-1l-7-7 4-10v-2l10-16 4-2 1 9z"
  />
  <path
    fill="#DB9C40"
    d="M740 1086c4-2 8-2 10 3l-15 17c-5 7-12 11-20 13 7-12 14-24 25-33z"
  />
  <path
    fill="#573C11"
    d="M740 1086c-11 9-18 21-25 34h-5l3-5 1-1c4 0 3-4 4-6l2-4-1-1v1l-19 15-2-1 7-7 6-7c10-5 20-10 27-19l2 1z"
  />
  <path
    fill="#E19F42"
    d="m736 1119 7 7v1l-1 2-1 1c-6 6-12 13-21 16l9-13 7-14z"
  />
  <path fill="#654919" d="M736 1106a350 350 0 0 1 14-15l-11 16-3-1z" />
  <path
    fill="#F7B651"
    d="m505 1021-3 3-17 24c-2 3-5 4-8 3l-2-5 1-7 12-25c-4 1-16 22-16 30-7-10-10-20-11-32l4-1 3 1-3 12h1l4-9 4-3 16 1c6 0 11 3 15 8z"
  />
  <path
    fill="#573C11"
    d="m446 997 1 1-22 7c-9 4-17 4-26 0h-4l-5-5 15 4a19265953 19265953 0 0 1 7-25l-4 26h5c4 1 5-1 5-4l4-23-8 1h-2c0-5 2-6 6-4l12 5v1l-5-1-4 24 1 1 15-7 7-2 2 1z"
  />
  <path
    fill="#51360D"
    d="M505 1021c-4-5-9-8-15-8l-16-1-4 3-4 9h-1l3-12-3-1 13-3 21 4c8 4 12 12 16 20l2 10h1l-3 2 2 2c-8 4-16 6-25 7h-2l-3-2 22-3 3-3c0-9-1-17-7-24z"
  />
  <path
    fill="#DF6323"
    d="m490 1054 1-1h1c9-1 17-3 26-7l4-2 10-3c8-3 16-2 25 1l1 1 1 3c-8-2-15 0-21 4-5 2-11 2-13 8-2-4-4-3-8-1l-20 5h-8l-8-2c1-6 6-5 9-6z"
  />
  <path
    fill="#F7B651"
    d="M525 1058c2-6 8-6 13-8l13-2 1 1-8 13-11 17-7-17-1-4z"
  />
  <path
    fill="#5E380F"
    d="m533 1079 11-17 8-13-1-1-13 2c6-4 13-6 21-3l7 7v3l-10-10-22 38-1-6z"
  />
  <path fill="#7F6126" d="M566 1057v-3l-7-7-1-4c7 0 13 5 15 14l-7 1v-1z" />
  <path
    fill="#C28A35"
    d="M672 1100v-2l6-9c4-8 11-12 17-17l7-4c4-1 7-2 10 1h2c10-1 19 1 26 7l-3 4-8 3-2 1-6 3a60 60 0 0 0-8 4l-2 1-1 1h-1l-1 1-14 7-20 1-2-2z"
  />
  <path
    fill="#DB9C40"
    d="M738 1085c-7 9-17 14-26 19-3 0-6 2-7-3h-3l35-19h4l-3 3z"
  />
  <path
    fill="#49340E"
    d="m737 1082-35 19-10 9-4 2 6-7 1-4a866 866 0 0 0 16-9l2-1h1l7-4 6-3 2-1 8-3v2z"
  />
  <path
    fill="#edede7ff"
    d="m673 403 23 1 14 2v24l-5-8-3-3-2-1-2-1c-3 0-7-3-9 1h-1l-2 1-1 1-1 1-2 1-1 3-6 12-2-6-2-3-2-1c-6-4-12-4-15 1l-3 2c-3 1-4 0-4-2l-1-18v-8h5l20 1h2z"
  />
  <path
    fill="#FCE788"
    d="m705 422 5 8v-24l-14-2h16l-1 22-1 8h-1l-4-12zm-16-4c2-4 6-1 9-1l-9 1zm13 1 3 3-3-3zm-4-2 2 1-2-1zm-12 2 2-1-2 1zm14-1 2 1-2-1zm-17 4 1-1-1 1zm-2 2 1-2-1 2zm4-4 1-1-1 1z"
  />
  <path fill="#5E380F" d="M746 932v-1l1 1h-1z" />
  <path
    fill="#8C7E35"
    d="m547 962-2-1 1-19c-3 0-3 3-4 5l-3 7-4 7c-5-3-3-8-2-12l6-21 4-8 15-16v20c1 12-2 22-8 32l-3 6m1-11s-1 0 0 0z"
  />
  <path
    fill="#928035"
    d="m554 985-5 1-14 4c-4 1-4-1-3-5h1l-1-1c8-10 18-15 31-14l-9 15zm-25 2-2 4-2-1 4-3z"
  />
  <path fill="#928035" d="m529 987 3-3v1l-3 2z" />
  <path fill="#FEB459" d="M525 982v2h-1v-2h1z" />
  <path
    fill="#928035"
    d="m356 1087-8-5-4-3c11-1 28 4 31 14 1 3 2 5-2 6l-1-3-1 1a2759 2759 0 0 0-15-10z"
  />
  <path fill="#80702E" d="m340 1099 10 1h9v2l-7 5h-2c-3-3-7-4-11-2l-7-3 8-3z" />
  <path fill="#654919" d="m356 1087 4 3h-1l-3-3z" />
  <path
    fill="#928035"
    d="m406 983 2 3-3 18-15-4 10-6v-3l-10 4-14-12c-1 0-3-3 1-3l15 2h9l5 1z"
  />
  <path
    fill="#F7B651"
    d="M444 995c-2 2-4 3-7 3l-15 7-1-1 4-24 5 1 6 2 3 2 1 1 2 2 3 6-1 1z"
  />
  <path
    fill="#422908"
    d="m445 994-3-6c3 1 4 3 3 6zm-9-11-6-2v-1l6 3zm3 2-3-2 3 2zm3 3-2-2 2 2z"
  />
  <path
    fill="#E36C28"
    d="M606 870v1l-2 2v4c-1 4-3 10-7 9-5 0-9-3-13-5l-1-8-1 1c-2 6-5 5-9 3-4-1-7-7-4-10 5-7 2-14 4-21 0-3 1-8 3-8 2-1 6 0 8 2l9 7h1l1 2 1 3 30-23c5-2 10-5 16-1-9 9-19 15-31 22l4 2-7 14-2 4m-14-10c-4-3-7-5-10 1l-4-1 7 7 4 1 10-2-7-6z"
  />
  <path
    fill="#928035"
    d="m604 797 1-1 4 7c0 8 2 17-2 25v3l-3 1-2-6c7-4 4-10 5-15l-6 14-2-3c0 7-4 12-8 16v-1l5-20 8-20m-9 33h-1 1z"
  />
  <path
    fill="#726429"
    d="m602 826 2 6 3-1c0 9-6 13-12 18l-1-2-3-9c4-4 8-9 8-16l2 3 1 1m-3 4zm-11 9h-1c2-4-3-6-3-9v-13c0-6 0-6 6-4h4c-3 8-6 16-5 24v1l-1 1z"
  />
  <path
    fill="#573C11"
    d="M589 837c-1-8 2-16 5-24v-1l4-10 4-5h2l-8 20-5 20h-2zm-1 2 1-1-1 1z"
  />
  <path
    fill="#E16323"
    d="M732 987v-2l1-12 1-6-15-4-2-3c-2-7 0-14 4-20 3-6 9-11 14-17h3c6 5 6 12 6 18 0 8-1 15-6 22l5-1c9-3 16 0 24 3 4 2 3 14 0 18-8 9-18 11-29 9l-6-5z"
  />
  <path
    fill="#E16323"
    d="m725 986-4 1-7-4c-3-2-4-5-3-9s5-8 8-8c4 0 7 4 11 7 2 10 2 11-5 13z"
  />
  <path
    fill="#C48A37"
    d="m478 1167-7 1v-6c-6 1-14-6-15-12h2l6 4 7 2 1-2-5-7-6-5 3-6 2 2 1-1-2-5c3-1 4-4 2-7v-2l8 3 1-2-7-4-2-2h-2l-1-1-5-4 11 4c3-7 12 0 15-7l3 1-1-5 4 4 2 7c3 15 1 29-7 41l1 5-1 1-8 3m-3-32-3-1-3 2 2 2 2 2c2 2 4 1 5-1 1-1-1-3-3-4m-1-18s1 0 0 0z"
  />
  <path fill="#45330A" d="m424 1112-7-1c8-2 15 0 22 3h-1l-14-2z" />
  <path fill="#573C11" d="m469 1120 7 4-1 2-8-3h-2v-1l4-2z" />
  <path fill="#45330A" d="M445 1117c6-1 11 1 16 5h-3l-3-1h-2l-4-2-4-2z" />
  <path fill="#573C11" d="M449 1108a204 204 0 0 1-11-7l7 3 4 4z" />
  <path fill="#49340E" d="m459 1113 5 4-9-4h4z" />
  <path fill="#D7973E" d="M458 1122h3l4 1h2v2l-9-3z" />
  <path fill="#45330A" d="m439 1114 6 3-6-2v-1z" />
  <path fill="#573C11" d="m452 1111-3-3h1l2 3zm2 1-2-1h1l1 1z" />
  <path fill="#49340E" d="M465 1118h2-2zm-10-5-1-1h1v1zm9 4 1 1-1-1z" />
  <path fill="#FEB459" d="M741 994v-1 1z" />
  <path
    fill="#8C7C32"
    d="m685 791-5 1-6-3-3-5c-4 3-6-2-9-3-5-1-6-4-4-9 5-5 9-2 13 1l13 6 16 7-15 5z"
  />
  <path
    fill="#A08A36"
    d="M658 772c-2 5-1 8 4 9 3 1 5 6 9 3l3 5-38 4-2-2 22-19h2z"
  />
  <path fill="#928035" d="m343 1076-2 2v-2h2z" />
  <path fill="#674F1B" d="M426 1053v1-1z" />
  <path
    fill="#8C7E35"
    d="m630 1094-3-5c3-15 14-23 28-30l-6 14c-2 3-3 8-9 9l-2 5-8 7z"
  />

  <path fill="#726429" d="m534 1151-3 2-2 2-3 2-6-8 14 2z" />
  <path
    fill="#8B712D"
    d="M475 1059c-5-1-8-3-10-8l-8-15 3-2 1-2 10 16 3 3 5 5-1 3h-3z"
  />
  <path
    fill="#726429"
    d="m461 1032-1 2-3 2c-2-3-7-6-2-11l-2-4c-3-2-3-4-2-7h3v2h1v-2l4 6 2 12zm-7-18h1-1z"
  />
  <path
    fill="#E19F42"
    d="m487 1163-1-5c8-12 10-26 7-41l-2-7-3-4-5-8c-2-3-6-5-7-8-1-7-7-7-12-10l-11-1c12-3 23 2 33 8l1 1 1 1 1 1 1 1 1 1 1 1 1 1 2 2 2 2 1 2 1 1 1 1 1 3 1 1 3 6c3 11 3 23-3 33v4l-1 1-14 13z"
  />
  <path
    fill="#AC7A2F"
    d="m453 1079 11 1-10 1-3 10 5-4 4-1c1 4 6 5 5 10a2773 2773 0 0 0 3 0l1 4c-4-2-7-3-9 0h-1l-4-2h-5l-5 5-7-2c0-4-3-4-5-3-1-5 1-7 5-9l3-4 4-2 4-3 4-1z"
  />
  <path
    fill="#F4CBA4"
    d="m495 1096-2-2 2 2zm2 2-2-2 2 2zm-10-10-1-1 1 1zm11 12-1-2 1 2zm1 1-1-1 1 1zm1 1-1-1h1v1zm-12-13-1-1 1 1zm2 2-1-1 1 1zm2 2-1-1 1 1zm1 1-1-1 1 1z"
  />
  <path fill="#AF913C" d="M615 1075zm1-19c1 0 4-2 4 2l-4 4v-6z" />
  <path fill="#766E2E" d="M384 1126c-14 11-29 9-44 3l10-3 37-8-3 8z" />
  <path
    fill="#928035"
    d="m644 830 21-7h6v1l-4 2-3 6c-14 9-29 16-44 20l-1-1c2-2 3-5 6-6l15-11 4-4z"
  />
  <path
    fill="#6B5420"
    d="m539 954 3-7c1-2 1-5 4-5l-1 19-6 7-2 2-1-2c5-4 1-9 3-14m4 0h1-1zm-8 18zm0 0v-1 1z"
  />
  <path fill="#8C7E35" d="m419 1057-1 1-1-1h2zm-13 6v1-1z" />
  <path
    fill="#E06624"
    d="M385 1053v3l1 1v2l-7 1c-3 0-6 0-6 5l-7-5-7-11a362 362 0 0 1-7-20l27 19 6 5z"
  />
  <path fill="#8D7E33" d="M757 1105z" />
  <path fill="#F4CBA4" d="m748 1120 1-1-1 1zm-5 7v-1h1l-1 1zm-2 3 1-1-1 1z" />
  <path fill="#E06624" d="M352 1029z" />
  <path fill="#F7B651" d="M505 1021c6 7 7 15 7 24l-3 3-22 3 3-7 13-17 2-6z" />
  <path fill="#928035" d="M769 946v-2c3-8 8-15 13-22l2 1-7 13-1 1-4 8-3 1z" />
  <path fill="#D49F4A" d="m772 945 4-8-3 8h-1zm4-8 1-1-1 1z" />
  <path fill="#6E6028" d="M339 1105c4-2 8-1 11 2l-5-1-3-1h-3z" />
  <path fill="#573C11" d="M579 995h-3v-1l3 1z" />
  <path fill="#F4CBA4" d="M504 1112zm-3-7-1-3 1 3zm1 1-1-1 1 1z" />
  <path fill="#E19F42" d="M478 1167z" />
  <path
    fill="#F9E485"
    d="M644 439a119 119 0 0 1-4 9l2-30 2-5v1l-1 23 1 2zm2-29 1 18c0 2 1 3 4 2l-7 9 1-8v-4a17356 17356 0 0 1 1-17zm-6 38-2 5 2-5zm11-18 3-2-2 2h-1zm-13 23-1 3 1-3zm-1 3v1h-1l1-1z"
  />
  <path fill="#D49F4A" d="m769 946 3-1-5 5 2-4zm-2 4-1 3-1-1 1-2h1z" />
  <path fill="#7F6126" d="M706 892h2l-1 5-1-5zm1 6-1 1 1-1zm-330 172z" />
  <path fill="#8C7E35" d="M429 1053z" />
  <path
    fill="#653B0E"
    d="m734 448 10-11-12-15 2-1 13 14 16-14 1 1-2 4-10 9c-3 2-2 4 0 7l11 12-1 1-16-14-10 9-3 7-1-7 2-2z"
  />
  <path fill="#edede7ff" d="M735 463c3-2 6-1 9 2h-1l-4-1-3-1h-1z" />
  <path
    fill="#7F6126"
    d="M694 1101v4l-7 6-5 3c-2 0-5 3-8-1-1-2-5-2-1-5l-2-4 1-4 2 2 20-1z"
  />
  <path fill="#F9E485" d="M654 428c3-5 9-5 15-1-5-2-10-1-15 1zm15-1 2 1-2-1z" />
  <path fill="#8D7E33" d="M695 868v-2 2zm-1 2 1-2-1 2zm-1 1 1-1-1 1z" />
  <path
    fill="#6B5420"
    d="m461 1142 6 5 5 7-1 2-7-2-6-4c-2-4-5-5-8-5l-6-4-3-2h-1l-6-6 3-1 4 1 15 6 1 1 4 2z"
  />
  <path
    fill="#45330A"
    d="m444 1141 6 4c-2 0-6 1-6-4zm6 4c3 0 6 1 8 5h-2l-2-1-2-2-2-2zm-9-6 3 2-3-2z"
  />
  <path fill="#9C712A" d="M433 1144c0 1 0 0 0 0z" />
  <path fill="#45330A" d="M440 1139h1-1z" />
  <path fill="#9C712A" d="M427 1137c0-1 0 0 0 0z" />
  <path
    fill="#AC7A2F"
    d="m461 1142-4-2-1-1a422 422 0 0 0-19-7c-1-5-3-9-10-10l5-1 1-5-9-4 14 2 7 3 4 2 4 2h2l3 1 9 3c2 3 1 6-2 7l2 5-1 1-2-2-3 6zm-40-8 3 3-2 1-1-4z"
  />
  <path
    fill="#653B0E"
    d="m758 362-7 6c4 5 10 9 11 16-6-2-9-9-14-13l-15 13c-1-4-1-4 5-9l8-7-12-14 2-1c6 2 8 8 13 12l15-13c1 3 1 3-6 10z"
  />
  <path
    fill="#F9E485"
    d="M793 402h-9v-46l-1 10a1093 1093 0 0 1 0-17l2 1v1l1 1v-17a4148 4148 0 0 1 56 1h-55v63l6 2v1z"
  />
  <path
    fill="#edede7ff"
    d="M744 401h-30l2-50 1-12 1 5-2 51c0 4 1 5 5 5h17l6 1z"
  />
  <path
    fill="#653B0E"
    d="m717 339-1 11-1-6v-10h-23v-1h23l1-17h1v17a299 299 0 0 1 5 1h-5v5z"
  />
  <path
    fill="#53300D"
    d="m783 366 1-10v38l-2 1 1-2v-11a1555 1555 0 0 1 0-16z"
  />
  <path fill="#F9E485" d="M783 369v14l-1 10v4l1-28z" />
  <path fill="#edede7ff" d="M748 402h-2 2z" />
  <path
    fill="#edede7ff"
    d="m637 456-1 1-1 1c-2 4-2 9-5 11s-9 1-13 1h-30c-3 0-4-1-4-4l2-46 1-16h28l11-2 17 1 2 8v2l-2 5-2 30-2 5-1 3z"
  />
  <path fill="#AC7A2F" d="m642 403-17-1-39-1 1-1h56l-1 3z" />
  <path
    fill="#53300D"
    d="M858 347h-1a62 62 0 0 1 0-10l-11-2v-1c4 0 9 1 10-1 2-2 1-7 1-10l2-10v20l14 1v1h-14l-1 12z"
  />
  <path fill="#E86C31" d="M543 328h23l-2 30h-28v-30h7z" />
  <path
    fill="#edede7ff"
    d="M857 337v2l-4 61a731695 731695 0 0 0-11 2l-35-1h-14l-6-2v-63a5712 5712 0 0 1 55 0h2l13 1z"
  />
  <path fill="#edede7ff" d="m857 337-13-1 2-1 11 2z" />
  <path fill="#edede7ff" d="m785 350-2-1 2-1v2z" />
  <path fill="#edede7ff" d="M843 336h-1v-1l1 1z" />
  <path
    fill="#edede7ff"
    d="M608 400h-20l-2-6 1-20 1-34c0-4 2-5 6-5l16 1 4-2 2 1c5 1 9 3 13-1h1l15 2-1 28v33l-1 2h-27l-8 1m20-16c4 0 2-2 1-3l-11-14 8-8c5-6 5-6 4-9l-15 14-12-13c-2 3-2 3 9 15-4 7-12 10-14 17l1 2 16-16 13 15z"
  />
  <path
    fill="#FCE788"
    d="M644 381v-17h2l2-2 1-27h13-12l-2 64 19 1h37l5 1h-58c-4 0-5-1-5-4l1-20-1-1-1 5h-1z"
  />
  <path
    fill="#F9E485"
    d="M647 364h-3l1-28-15-2h16v21l1 9zm-18-30c-4 4-8 2-13 1l7-1h6z"
  />
  <path fill="#855118" d="M625 332h2-2z" />
  <path fill="#edede7ff" d="M584 391h-2l1-4 1 1v3zm-1-7v2-2zm-14 16-1 1 1-1z" />
  <path
    fill="#F9E485"
    d="M584 392v-4l2-32 1-22h27l-4 2-16-1c-4 0-6 1-6 5l-1 34-1 20 2 5-1 1c-6-1-2-5-3-8z"
  />
  <path
    fill="#edede7ff"
    d="m709 402-5-2h-37l-19-1 2-64h13l2-1h50v10l-1 8-1-1v1l-1 37v12l-3 1m-31-31 3 1 13 13 2-1c-3-6-8-11-14-16l15-15c-4-1-6 2-9 5l-8 7c-10-13-10-13-14-11l12 13-17 16 3 2 14-14z"
  />
  <path fill="#FCE788" d="M669 334h-4 4z" />
  <path fill="#edede7ff" d="M737 333h2-2z" />
  <path
    fill="#6A4201"
    d="M273 548h1l5-3 1-1 11-3c9-2 18 0 27 1h1l12 10c-7 6-11-1-16-1l-1-1c-11-4-22-3-32 0l-4 2-2 1-2 1-6 1v-1l4-5 1-1z"
  />
  <path
    fill="#281602"
    d="M325 597c-19 10-38 11-57-2a46 46 0 0 1-19-41c0-4 0-9 2-12v19c1 22 21 40 43 41 11 1 21-2 31-7v2z"
  />
  <path
    fill="#EEAF17"
    d="M358 537c10-7 21-7 31-3l-16-1-6 2v1h14l4 3-20 1c0-5-4-2-7-3z"
  />
  <path fill="#281602" d="M329 514c-13-7-26-9-41-6 15-6 28-2 41 5v1z" />
  <path fill="#3C2306" d="M318 542c-9-1-18-3-27-1v-1c9-4 18-2 27 2z" />
  <path fill="#341E06" d="m278 552 4-2c10-3 21-4 32 0h-25l-11 2z" />
  <path
    fill="#281602"
    d="M340 522c6 5 8 12 10 19l3 9-13-27v-1zm-4 64 12-20c-1 9-6 15-12 22v-2z"
  />
  <path fill="#4D2F0B" d="M336 586v2l-11 9v-2l11-9z" />
  <path fill="#281602" d="m329 514 10 7v1l-10-8z" />
  <path
    fill="#341E06"
    d="M291 540v1l-11 3 11-4zm-12 5-5 3 5-3zm-5 9 2-1-2 1zm2-1 2-1-2 1z"
  />
  <path fill="#3C2306" d="M319 542h-1 1z" />
  <path fill="#281602" d="M340 522v1l-1-1h1z" />
  <path
    fill="#F4CBA4"
    d="m350 672-7-2-32-8-1-2v-1l1-2 6 2 5 3 11-2 1 1 1 1c5 3 10 4 14 0l1-1 6 3c4 3 12 4 16 2l3-1c4-2 7-4 12-1 4 2 9 3 13 3l7-4h6c2 0 4 0 4-3l6-1 8-2 2 1v3l-2 2-3 2-13 5-14 3c-17 4-34 2-51-1z"
  />
  <path
    fill="#3C2306"
    d="m407 663-7 4c-4 0-9-1-13-3-5-3-8-1-12 1l-3 1c3-5 10-7 16-4 6 2 12 4 19 1z"
  />
  <path fill="#573710" d="m433 658-2-1-4-4 1-6 6 3v9l-1-1z" />
  <path fill="#3C2306" d="M372 666c-4 2-12 1-16-2l-6-3c2-2 3-1 5 0l17 5z" />
  <path fill="#422908" d="m333 660-11 2-5-4c4 2 8 2 12 0l4 2z" />
  <path
    fill="#3C2306"
    d="M417 660c0 3-2 3-4 3h-6l3-5 2-1 2 4 3-1zm-68 2c-4 4-9 3-14 0l3-1 11 1z"
  />
  <path fill="#482B08" d="M322 631c1 0 0 0 0 0z" />
  <path fill="#3C2306" d="M410 658z" />
  <path
    fill="#5E380F"
    d="M350 673c17 2 34 4 51 0l14-3 2 1-20 5-25 1-22-3v-1z"
  />
  <path fill="#683E16" d="M362 696c-1 2 1 6-3 5l2-14h1v9z" />
  <path fill="#4D2C0B" d="m417 671-2-1 13-5-1 3h-1l-9 3z" />
  <path fill="#573710" d="M426 668h1l2 2-3-2z" />
  <path
    fill="#281602"
    d="m479 515 6 6a87 87 0 0 0 4 5l1 2 2 5 3 20v4l-7 19-1 2-1 1c-7 9-16 14-27 19h-2l-1-2c13-4 23-10 31-22 15-25 2-62-32-67l-16-1c15-3 28 1 40 9z"
  />
  <path
    fill="#EEAF17"
    d="M457 598h2c-12 4-23 3-34-4 10 5 20 6 32 4zm31-22 7-19c2 8-2 13-7 19zm-1 3 1-3-1 3zm-1 0h1-1z"
  />
  <path fill="#855118" d="m290 660 2-3 13 1c-7 4-4 11-5 18-5-5-9-10-10-16z" />
  <path fill="#6E4817" d="M307 659c-1 0 0 0 0 0z" />
  <path
    fill="#EE9B10"
    d="m438 506 17 1c34 5 47 42 32 67-8 12-18 18-32 22-15 2-28 0-39-12a51 51 0 0 1-13-27l1-17c1-6 5-11 7-17l1-2h1v-1h1l15-10 9-4m-18 40v1h-1l-3 4-2 5 7-1 10-4c8-3 17-3 26-1l10 6h4v-4c-4-10-14-10-23-14-8 0-16 0-23 5h-1l-3 3h-1m14-12 14-2v-2l-20 3 1 2 5-1z"
  />
  <path fill="#4D2C0B" d="m428 665 3-2-3 2zm3-2 2-2-2 2zm2-5 1 1-1 2v-3z" />
  <path
    fill="#EC9B10"
    d="m412 521-1 2-10 19v8a255 255 0 0 1-12-9l-2-1-2-1-4-3h-14v-1l6-2 17 1 3 1 4 2 3 1c-1-9 5-16 11-22 2-4 7-6 11-9l5-3h1l6-1c13-3 26-3 39 4l4 1 2 1v1l2 1c-1 1 3 4-2 4-12-8-25-12-40-9l-10 4-15 10-2 1z"
  />
  <path fill="#3C2306" d="M401 551v-9l10-19c-2 6-6 11-7 17l-1 17-2-6z" />
  <path
    fill="#EEAF17"
    d="m389 541 3 1-3-1zm-4-2 2 1-2-1zm3 1 1 1-1-1zm89-32-4-1c-13-7-26-7-39-4l-6 1c6-2 12-4 19-4 6-1 13 1 20 2l9 5 1 1z"
  />
  <path fill="#482B08" d="m450 481 1 1a224 224 0 0 1-1-1z" />
  <path fill="#EEAF17" d="m427 504-5 3 3-3h2z" />
  <path fill="#281602" d="M426 504h-1 1z" />
  <path
    fill="#EC9B10"
    d="m492 523 1 2-1 8-2-5-1-2-1-4 4 1zm3 12-1 1 1-1zm-10-14 3-3v4l-3-1z"
  />
  <path fill="#4D2C0B" d="M889 527v1-1z" />
  <path
    fill="#edede7ff"
    d="m779 444 1 6-1 23a349 349 0 0 1-6 0c3 0 4-1 4-4l1-22 1-3z"
  />
  <path fill="#4D2C0B" d="M712 401v-13l3-36v-7l1 6a7724 7724 0 0 1-4 50z" />
  <path
    fill="#edede7ff"
    d="M793 401h14a1184 1184 0 0 1 13 1h-1a2418 2418 0 0 1-26-1z"
  />
  <path fill="#6A4517" d="M655 401h18v1h-2l-16-1z" />
  <path fill="#edede7ff" d="m846 402 7-2 4-61v8l-2 48-1 6-8 1z" />
  <path fill="#855118" d="M820 402h3-3z" />
  <path fill="#edede7ff" d="M780 417a478 478 0 0 1-1 2l1-2z" />
  <path fill="#C28A35" d="M719 1104v-1 1z" />
  <path
    fill="#F4CBA4"
    d="M412 979h2l-4 22 2 3 4-2 1-4 2-12 1-7h-6l8-1-4 23c0 3-1 5-5 4h-5l4-26z"
  />
  <path fill="#674316" d="M492 1053h-1 1z" />
  <path
    fill="#E19F42"
    d="M721 1087zm6-3-6 3 6-3zm2-1-2 1 2-1zm-16 8-2 1 2-1zm-4 2-1 1 1-1zm2-1-1 1 1-1z"
  />
  <path
    fill="#482B08"
    d="m645 381 1-5 1 1-1 20c0 3 1 4 5 4v1h-5a416 416 0 0 0-2 10v-15l1-16z"
  />
  <path fill="#855118" d="M651 402v-1h4l16 1h-20z" />
  <path fill="#6B5420" d="M548 951c-1 0 0 0 0 0z" />
  <path fill="#604215" d="M532 985v-1l1 1h-1z" />
  <path
    fill="#573710"
    d="m592 860 7 6-10 2-4-1-7-7 4 1c3-6 6-4 10-1zm2-13 1 2-1-2z"
  />
  <path fill="#6B5420" d="m602 826-1-1 6-14c-1 5 2 11-5 15z" />
  <path fill="#726429" d="M595 830h-1 1z" />
  <path fill="#6B5420" d="M599 830h1-1z" />
  <path
    fill="#BD8635"
    d="M468 1096h-3c1-5-4-6-5-10l-4 1-5 4 3-10 11-1c4 3 10 3 11 10 1 3 5 5 7 8l4 8 1 5-3-1c-3 7-12 0-15 7l-11-4h-3l-2-1-1-1-3-3-5-4 5-6h5l4 2 1 6 4 2 1-1-1-1 4-4-5-2h-3c2-3 5-2 9 0l-1-4z"
  />
  <path
    fill="#604215"
    d="M476 1135c1 1 3 3 2 4-1 2-3 3-5 1l-2-2-2-2 3-2 4 1z"
  />
  <path fill="#BD8635" d="M474 1117c1 0 0 0 0 0z" />
  <path fill="#604215" d="M454 1014h1v2h-1v-2z" />
  <path fill="#573C11" d="M460 1100h3l5 2-4 4 1 1-1 1-4-2-1-5 1-1z" />
  <path fill="#BD8635" d="M465 1096z" />
  <path fill="#8C7E35" d="M543 954h1-1z" />
  <path fill="#422908" d="m644 414 1 13v4l-1 8-1-2 1-23z" />
  <path fill="#edede7ff" d="M645 431v-4 4z" />
  <path fill="#49340E" d="M441 1133zm15 6 1 1-1-1z" />
  <path fill="#edede7ff" d="M842 336h-1 1z" />
  <path fill="#855118" d="M783 393z" />
  <path fill="#F9E485" d="M644 400v11l-2-8 1-3h1z" />
  <path fill="#FCE788" d="M644 400h-35l7-1h27l1 1z" />
  <path
    fill="#653B0E"
    d="m628 384-13-15-16 16-1-2c2-7 10-10 14-17-11-12-11-12-9-15l12 13 15-14c1 3 1 3-4 9l-8 8 11 14c1 1 3 3-1 3z"
  />
  <path fill="#F9E485" d="m645 381-1 16v-16h1z" />
  <path
    fill="#653B0E"
    d="m678 371-14 14-3-2 17-16-12-13c4-2 4-2 14 11l8-7c3-3 5-6 9-5l-15 15c6 5 11 10 14 16l-2 1-13-13-3-1z"
  />
  <path fill="#F9E485" d="M714 352a759 759 0 0 1-1 0v-1l1 1z" />
  <path fill="#EEAF17" d="m485 521 3 1 1 4-4-5zm5 7 2 5-2-5zm-1-2 1 2-1-2z" />
  <path
    fill="#53300D"
    d="M449 538c8 4 18 4 22 14v4h-4l-10-7 7 1v-2l-8-1h-1c-3-4-10-7-13-5-6 5-12 1-18 4l1-3 15-3 9-2z"
  />
  <path
    fill="#6A4201"
    d="M424 546c6-3 12 1 18-4 3-2 10 1 13 5h-13l-12 4-9 4-7 1 3-5 3-4 1-1h3z"
  />
  <path fill="#3C2306" d="m430 551 12-4h15v2c-9-1-18-1-27 2z" />
  <path fill="#6A4201" d="m433 534-4 1-1-2 20-3v2l-15 2z" />
  <path
    fill="#281602"
    d="m448 538-8 2-15 3c7-5 15-5 23-5zm-28 9-3 4 3-4zm4-1h-3l4-3-1 3z"
  />
  <path fill="#3C2306" d="M413 521v-1 1z" />
  <path fill="#F4CBA4" d="M414 979h6l-1 7-2 12-1 4-4 2-2-3 4-22z" />
  <path fill="#AC7A2F" d="M468 1096z" />
  <path fill="#6A4201" d="M457 549v-2l7 1v2l-7-1z" />
</svg>
